<svg width="309" height="154" viewBox="0 0 309 154" fill="none" xmlns="http://www.w3.org/2000/svg">
<path d="M168.486 112.598L18.9747 111.869L4.11865 77.0239L56.6497 73.2109L47.4937 35.0109L151.394 21.5439L51.9017 -13.0431L60.6907 -15.1311L220.672 10.9689L211.859 70.5859L199.266 103.351L168.486 112.598Z" fill="#5FC0E6"/>
<path d="M253.786 84.833C253.786 84.833 243.886 96.919 251.746 115.191L172.684 149.481L165.097 151.071L161.603 135.783L163.94 116.489V105.944L253.786 84.833Z" fill="#D5D6DB"/>
<path d="M4.11865 77.0229L113.548 57.074L258.548 80.174L168.487 112.598L4.11865 77.0229Z" fill="#5FC0E6"/>
<path d="M4.11946 77.019C4.11946 77.019 -6.11454 96.4091 5.67846 114.319L167.952 149.482C167.952 149.482 157.879 134.036 168.472 112.598L4.11946 77.019Z" fill="#5FC0E6"/>
<path opacity="0.1" d="M4.11946 77.019C4.11946 77.019 -6.11454 96.4091 5.67846 114.319L167.952 149.482C167.952 149.482 157.879 134.036 168.472 112.598L4.11946 77.019Z" fill="#254B59"/>
<path d="M167.952 149.482L258.546 110.824C258.546 110.824 263.613 111.916 260.337 115.624C257.061 119.332 169.699 153.19 169.699 153.19L5.67822 114.318L167.952 149.482Z" fill="#5FC0E6"/>
<path opacity="0.1" d="M167.952 149.482L258.546 110.824C258.546 110.824 263.613 111.916 260.337 115.624C257.061 119.332 169.699 153.19 169.699 153.19L5.67822 114.318L167.952 149.482Z" fill="#254B59"/>
<path opacity="0.1" d="M202.823 116.324L163.638 129.397L163.776 129.812L202.962 116.738L202.823 116.324Z" fill="#254B59"/>
<path opacity="0.1" d="M210.669 115.024L163.623 132.914L163.778 133.323L210.824 115.433L210.669 115.024Z" fill="#254B59"/>
<path opacity="0.1" d="M217.877 114.96L163.885 137.06L164.051 137.464L218.043 115.365L217.877 114.96Z" fill="#254B59"/>
<path opacity="0.1" d="M225.716 113.069L164.516 140.715L164.696 141.113L225.896 113.467L225.716 113.069Z" fill="#254B59"/>
<path opacity="0.1" d="M232.281 113.041L165.001 142.494L165.177 142.894L232.456 113.441L232.281 113.041Z" fill="#254B59"/>
<path opacity="0.1" d="M246.708 110.63L166.018 145.481L166.191 145.882L246.881 111.031L246.708 110.63Z" fill="#254B59"/>
<path d="M258.547 80.1731C258.547 80.1731 262.522 81.7731 260.189 84.2531C257.856 86.7331 168.473 112.597 168.473 112.597L258.547 80.1731Z" fill="#5FC0E6"/>
<path d="M297.157 42.821C297.157 42.821 287.257 54.9031 295.121 73.1791L216.059 107.469L208.472 109.069L204.977 93.7811L207.349 74.4921V63.9321L297.157 42.821Z" fill="#D5D6DB"/>
<path d="M47.4946 35.007L156.92 15.062L301.92 38.162L211.859 70.586L47.4946 35.007Z" fill="#2F6073"/>
<path d="M47.4767 35.0071C47.4767 35.0071 37.2377 54.3971 49.0317 72.3071L211.306 107.47C211.306 107.47 201.238 92.0111 211.843 70.5821L47.4767 35.0071Z" fill="#2F6073"/>
<path d="M47.4767 35.0071C47.4767 35.0071 37.2377 54.3971 49.0317 72.3071L211.306 107.47C211.306 107.47 201.238 92.0111 211.843 70.5821L160.527 59.4741L47.4767 35.0071Z" fill="#2F6073"/>
<path d="M211.323 107.469L301.923 68.811C301.923 68.811 306.986 69.903 303.709 73.611C300.432 77.319 213.071 111.176 213.071 111.176L49.0493 72.3051L211.323 107.469Z" fill="#2F6073"/>
<path d="M211.323 107.469L301.923 68.811C301.923 68.811 306.986 69.903 303.709 73.611C300.432 77.319 213.071 111.176 213.071 111.176L49.0493 72.3051L211.323 107.469Z" fill="#2F6073"/>
<path opacity="0.1" d="M203.897 74.49C203.897 74.49 195.161 84.973 203.897 100.699V74.49Z" fill="#254B59"/>
<path opacity="0.1" d="M246.197 74.3165L207.011 87.3899L207.15 87.8044L246.335 74.7311L246.197 74.3165Z" fill="#254B59"/>
<path opacity="0.1" d="M254.049 73.015L207.002 90.905L207.158 91.3135L254.204 73.4235L254.049 73.015Z" fill="#254B59"/>
<path opacity="0.1" d="M261.251 72.9442L207.259 95.0439L207.425 95.4484L261.417 73.3486L261.251 72.9442Z" fill="#254B59"/>
<path opacity="0.1" d="M269.095 71.054L207.895 98.7L208.074 99.0982L269.275 71.4523L269.095 71.054Z" fill="#254B59"/>
<path opacity="0.1" d="M275.653 71.0199L208.374 100.473L208.549 100.873L275.828 71.4201L275.653 71.0199Z" fill="#254B59"/>
<path opacity="0.1" d="M290.083 68.6099L209.393 103.461L209.566 103.862L290.256 69.0111L290.083 68.6099Z" fill="#254B59"/>
<path d="M301.921 38.1611C301.921 38.1611 305.892 39.7611 303.563 42.2371C301.234 44.7131 211.863 70.5811 211.863 70.5811L301.921 38.1611Z" fill="#2F6073"/>
<path d="M301.262 -5.24097C301.262 -5.24097 291.362 16.4591 299.222 34.7271L220.159 59.409L212.589 61.0091L209.095 45.721L211.432 26.427V15.87L301.262 -5.24097Z" fill="#D5D6DB"/>
<path d="M51.6133 -13.051L161.042 -33L306.042 -9.89999L215.98 22.52L51.6133 -13.051Z" fill="#5FC0E6"/>
<path d="M51.6137 -13.0549C51.6137 -13.0549 41.3617 6.33506 53.1557 24.2451L215.43 59.4081C215.43 59.4081 205.357 43.949 215.963 22.524L51.6137 -13.0549Z" fill="#5FC0E6"/>
<path opacity="0.1" d="M51.6137 -13.0549C51.6137 -13.0549 41.3617 6.33506 53.1557 24.2451L215.43 59.4081C215.43 59.4081 205.357 43.949 215.963 22.524L51.6137 -13.0549Z" fill="#254B59"/>
<path d="M215.446 59.4071L306.04 30.3591C306.04 30.3591 311.107 31.4511 307.831 35.1591C304.555 38.8671 217.193 63.1151 217.193 63.1151L53.1724 24.2441L215.446 59.4071Z" fill="#5FC0E6"/>
<path opacity="0.1" d="M215.446 59.4071L306.04 30.3591C306.04 30.3591 311.107 31.4511 307.831 35.1591C304.555 38.8671 217.193 63.1151 217.193 63.1151L53.1724 24.2441L215.446 59.4071Z" fill="#254B59"/>
<path opacity="0.1" d="M250.321 26.2536L211.135 39.3269L211.274 39.7414L250.459 26.6681L250.321 26.2536Z" fill="#254B59"/>
<path opacity="0.1" d="M258.171 24.954L211.125 42.844L211.28 43.2525L258.326 25.3624L258.171 24.954Z" fill="#254B59"/>
<path opacity="0.1" d="M265.369 24.8863L211.376 46.9861L211.542 47.3905L265.534 25.2907L265.369 24.8863Z" fill="#254B59"/>
<path opacity="0.1" d="M273.218 22.992L212.018 50.6379L212.197 51.0362L273.398 23.3903L273.218 22.992Z" fill="#254B59"/>
<path opacity="0.1" d="M279.778 22.962L212.499 52.415L212.674 52.8153L279.953 23.3623L279.778 22.962Z" fill="#254B59"/>
<path opacity="0.1" d="M294.207 20.554L213.517 55.405L213.69 55.8062L294.38 20.9552L294.207 20.554Z" fill="#254B59"/>
<path d="M306.04 -9.9021C306.04 -9.9021 310.015 -8.30211 307.682 -5.82211C305.349 -3.34211 215.982 22.5219 215.982 22.5219L306.04 -9.9021Z" fill="#5FC0E6"/>
</svg>
