<svg width="129" height="116" viewBox="0 0 129 116" fill="none" xmlns="http://www.w3.org/2000/svg">
<path d="M98.5704 85.3602C97.1868 87.5737 95.6074 89.6587 93.8513 91.59C91.401 93.9257 88.6513 95.9256 85.6743 97.5373C79.9482 100.661 75.9141 100.642 70.5727 103.868C69.9627 103.929 69.3609 103.95 68.7556 103.962C67.5499 103.98 65.7593 106.635 64.5548 106.532C64.5452 106.534 64.5384 106.53 64.5282 106.533C63.9482 106.835 63.4493 107.272 63.074 107.807L63.066 107.82C60.9202 110.229 57.093 115.465 54.6039 118.421C54.2966 118.775 54.0141 119.101 53.7539 119.38C53.061 120.141 52.557 120.589 52.334 120.544C49.5736 120.013 49.3629 118.245 46.7295 117.041C45.3127 116.399 37.9679 113.298 36.6102 112.449C32.7561 110.04 31.491 107.423 29.251 104.065C29.0913 103.836 28.9359 103.599 28.7673 103.356C28.7021 103.272 28.655 103.19 28.5927 103.109C27.9338 102.169 33.0725 92.0621 34.4973 87.9126C34.4966 87.9086 34.4967 87.9046 34.4977 87.9007C34.4987 87.8969 34.5005 87.8933 34.5031 87.8902C34.7995 87.0271 34.9331 86.4267 34.8204 86.2183L34.7365 86.062C34.3806 85.3974 34.0574 84.7107 33.7532 84.0182C33.8861 76.6697 30.868 67.7137 33.0033 57.4916C34.0423 53.8767 35.5703 50.4206 37.5449 47.2193C40.0365 43.1856 43.3008 39.684 47.15 36.9159C50.9992 34.1478 55.3575 32.1677 59.9745 31.0894C64.5914 30.0112 69.376 29.856 74.0531 30.6328C78.7302 31.4096 83.2077 33.103 87.2282 35.6159C91.2488 38.1287 94.733 41.4113 97.4808 45.2751C100.229 49.1389 102.186 53.5076 103.24 58.1301C104.294 62.7527 104.424 67.538 103.622 72.211C102.821 76.8839 101.104 81.353 98.5704 85.3602Z" fill="#E6E6E6"/>
<path d="M93.8529 91.591C91.4026 93.9267 88.6529 95.9266 85.676 97.5382C79.9499 100.662 75.9157 100.643 70.5744 103.869C67.0191 106.019 62.8872 109.611 57.2819 116.52C56.9498 116.926 56.7523 117.505 56.418 117.902C55.6715 118.777 55.9548 118.713 54.824 119.218C54.4628 119.2 54.4328 118.888 54.6033 118.422C55.1131 117.299 55.7565 116.242 56.5196 115.273C58.4411 112.572 60.6342 110.074 63.0646 107.82L63.0725 107.807C63.5605 107.359 64.0494 106.937 64.5262 106.534C72.897 99.5561 80.7016 98.9009 85.9842 95.811C113.698 79.6346 107.11 38.1251 75.4966 31.374C73.799 31.0146 73.6908 31.3538 73.5928 31.3445C71.1308 30.9743 69.326 30.3582 66.6475 30.4589C50.3697 31.0919 36.6633 43.9052 33.8971 59.7896C32.4011 68.3888 35.8262 75.9069 34.7366 86.0597C34.6801 86.6533 34.6023 87.2627 34.5032 87.8879C34.5007 87.8909 34.4988 87.8945 34.4978 87.8984C34.4968 87.9023 34.4967 87.9063 34.4975 87.9102C33.5567 93.3676 31.6142 98.6037 28.7683 103.354C28.7212 103.443 28.6798 103.524 28.6294 103.605C28.8416 103.763 29.0516 103.912 29.252 104.063C32.38 106.417 34.1905 108.284 35.658 108.404L36.8003 109.292C36.8508 110.111 44.0862 113.672 45.1805 114.338L45.4603 114.513C48.1361 116.282 50.9052 117.906 53.7555 119.377C53.9008 119.45 54.0549 119.52 54.2039 119.588C54.3595 119.743 54.4496 119.952 54.4558 120.172C54.4619 120.391 54.3836 120.605 54.237 120.769C53.8316 121.606 51.112 123.067 50.5102 123.047C48.767 122.996 27.7307 110.377 26.6202 107.735C26.2943 106.968 26.2385 106.112 26.4618 105.309C26.6852 104.506 27.1746 103.803 27.8498 103.314C27.9217 103.116 27.467 102.14 27.5369 101.959C28.4888 99.6053 32.2876 94.5102 33.5211 86.8554C33.6691 85.9156 33.7474 84.9661 33.7553 84.0147C33.8871 76.6679 30.8679 67.7136 33.0078 57.4861C34.1934 52.0197 36.6141 46.8971 40.0845 42.5104C48.5036 31.4928 65.8016 26.2839 78.9516 30.4591C106.477 39.1928 113.06 73.218 93.8529 91.591Z" fill="#5FC0E6"/>
<path d="M50.4033 123.88C51.2032 126.991 49.7521 126.967 47.465 128.581C46.4681 127.595 25.8188 116.454 23.6828 113.717C23.353 113.262 23.1442 112.729 23.0762 112.171C23.0082 111.613 23.083 111.046 23.2938 110.524C23.5046 110.003 23.8443 109.543 24.2812 109.189C24.7181 108.834 25.2379 108.596 25.7918 108.498C33.3993 114.523 41.654 119.682 50.4033 123.88Z" fill="#5FC0E6"/>
<path d="M48.0525 130.102C47.7497 132.315 45.6006 132.445 44.0767 133.386L42.5225 132.799L20.8483 118.868C19.6881 117.79 20.0065 115.428 20.4316 113.993C20.5111 113.814 20.6432 113.664 20.8103 113.562C20.9774 113.46 21.1715 113.412 21.3668 113.423L23.5093 113.993C30.3646 119.09 37.4966 123.805 44.8725 128.114C45.531 128.135 46.1722 128.33 46.7308 128.679C47.2894 129.028 47.7455 129.519 48.0525 130.102Z" fill="#5FC0E6"/>
<path d="M44.1904 96.3998L43.6172 96.0415L49.4705 86.6762L52.8866 57.718L53.5579 57.7967L50.1264 86.9022L44.1904 96.3998Z" fill="#4FA0BF"/>
<path d="M97.1923 19.3192C98.8621 19.2532 93.0412 28.6081 92.4936 28.6881C90.408 28.9836 96.6336 19.3415 97.1923 19.3192Z" fill="#5FC0E6"/>
<path d="M87.2722 14.2727C88.5624 14.2536 85.1551 24.426 84.7316 24.798C82.3215 26.9144 86.665 14.28 87.2722 14.2727Z" fill="#5FC0E6"/>
<path d="M106.076 26.0248C107.352 26.4226 100.132 33.8689 99.6636 34.1316C95.2328 36.6076 105.383 25.8096 106.076 26.0248Z" fill="#5FC0E6"/>
<path d="M53.1057 101.992L59.1401 91.2917L59.1752 91.2582L79.1797 71.7208L79.6521 72.2047L59.6818 91.7081L53.694 102.324L53.1057 101.992Z" fill="#4FA0BF"/>
</svg>
