<svg width="67" height="67" viewBox="0 0 67 67" fill="none" xmlns="http://www.w3.org/2000/svg">
<path d="M33.281 66.562C51.6616 66.562 66.562 51.6616 66.562 33.281C66.562 14.9004 51.6616 0 33.281 0C14.9004 0 0 14.9004 0 33.281C0 51.6616 14.9004 66.562 33.281 66.562Z" fill="#E6E6E6"/>
<path d="M50.592 13.7941C49.7733 13.3256 48.8035 13.1971 47.8911 13.4363C46.9787 13.6755 46.1966 14.2632 45.713 15.0731L33.8461 38.5861C30.6246 33.5846 26.5616 29.1785 21.837 25.5631C20.312 24.3851 17.8421 25.3311 16.9581 26.8421C15.8811 28.6841 16.708 30.5421 18.237 31.7211C23.7195 36.0535 28.0615 41.6587 30.886 48.0501C31.976 50.4561 35.906 50.3041 37.0441 48.0501L51.8721 18.6751C52.3272 17.8534 52.4483 16.8879 52.2101 15.9793C51.9719 15.0707 51.3928 14.2888 50.593 13.7961L50.592 13.7941Z" fill="#4FA0BF"/>
</svg>
