<svg width="266" height="302" viewBox="0 0 266 302" fill="none" xmlns="http://www.w3.org/2000/svg">
<g clip-path="url(#clip0_2038_248)">
<rect width="266" height="302" rx="20" fill="#FFEFF4"/>
<path d="M136.675 275.061V213.553C136.676 212.692 137.018 211.866 137.628 211.256C138.237 210.647 139.063 210.304 139.925 210.303H147.305C148.167 210.304 148.993 210.647 149.602 211.256C150.212 211.866 150.554 212.692 150.555 213.553V275.061C150.554 275.922 150.212 276.749 149.602 277.358C148.993 277.967 148.167 278.31 147.305 278.311H139.925C139.063 278.31 138.237 277.967 137.628 277.358C137.018 276.749 136.676 275.922 136.675 275.061Z" fill="#2F2E41"/>
<path d="M122.078 275.061V213.553C122.079 212.692 122.421 211.866 123.031 211.256C123.64 210.647 124.466 210.304 125.328 210.303H132.708C133.57 210.304 134.396 210.647 135.005 211.256C135.615 211.866 135.957 212.692 135.958 213.553V275.061C135.957 275.922 135.615 276.749 135.005 277.358C134.396 277.967 133.57 278.31 132.708 278.311H125.328C124.466 278.31 123.64 277.967 123.031 277.358C122.421 276.749 122.079 275.922 122.078 275.061Z" fill="#2F2E41"/>
<path d="M151.257 193.247H121.376C119.719 193.247 118.375 194.59 118.375 196.247V230C118.375 231.657 119.719 233 121.376 233H151.257C152.914 233 154.257 231.657 154.257 230V196.247C154.257 194.59 152.914 193.247 151.257 193.247Z" fill="#2F2E41"/>
<path d="M86.0812 96.6127C86.0812 96.6127 71.001 103.618 58.2397 108.264C50.3207 90.3881 38.9121 91.0571 38.9121 91.0571L31.9955 95.8193L33.2427 102.962L32.9026 114.64L31.0884 120.763L33.6917 121.233L35.1624 121.5L35.3841 121.3C35.0171 122.753 34.8686 124.254 34.9435 125.752L100.368 115.548C100.368 115.548 98.1002 105.003 86.0812 96.6127Z" fill="#E6E6E6"/>
<path d="M66.7618 188.553L71.1482 194.488C72.133 195.82 74.0116 196.102 75.3442 195.117L124.811 158.56C126.144 157.576 126.426 155.697 125.441 154.365L121.054 148.43C120.07 147.097 118.191 146.816 116.859 147.8L67.3914 184.357C66.0588 185.342 65.777 187.22 66.7618 188.553Z" fill="#FF5C95"/>
<path d="M151.052 146.414L144.533 149.873C143.069 150.65 142.512 152.466 143.289 153.93L172.123 208.26C172.9 209.724 174.716 210.281 176.18 209.504L182.699 206.044C184.162 205.268 184.719 203.452 183.943 201.988L155.109 147.658C154.332 146.194 152.516 145.637 151.052 146.414Z" fill="#FF5C95"/>
<path d="M169.327 170.526L158.68 177.584C157.053 178.448 155.105 177.961 154.328 176.498L142.57 154.342C141.793 152.878 142.482 150.992 144.109 150.129L151.356 146.283C152.983 145.42 154.932 145.906 155.708 147.37L170.867 166.313C171.644 167.777 170.954 169.663 169.327 170.526Z" fill="#CCCCCC"/>
<path d="M96.7731 164.036L103.693 173.226C104.238 173.806 104.991 174.146 105.786 174.171C106.581 174.196 107.354 173.904 107.934 173.36L126.223 156.194C126.803 155.65 127.143 154.897 127.169 154.102C127.194 153.307 126.902 152.534 126.358 151.954L121.307 146.573C120.762 145.993 120.009 145.653 119.214 145.628C118.419 145.602 117.646 145.894 117.066 146.439L96.9074 159.796C96.3272 160.34 95.9871 161.093 95.962 161.888C95.9368 162.683 96.2285 163.456 96.7731 164.036Z" fill="#CCCCCC"/>
<path d="M153.083 145.53H119.55C117.893 145.53 116.55 146.873 116.55 148.53V219.768C116.55 221.425 117.893 222.768 119.55 222.768H153.083C154.74 222.768 156.083 221.425 156.083 219.768V148.53C156.083 146.873 154.74 145.53 153.083 145.53Z" fill="#CCCCCC"/>
<path d="M136.12 140.881C150.9 140.881 162.882 128.9 162.882 114.121C162.882 99.3422 150.9 87.3616 136.12 87.3616C121.341 87.3616 109.359 99.3422 109.359 114.121C109.359 128.9 121.341 140.881 136.12 140.881Z" fill="#FF5C95"/>
<path d="M139.24 123.056C137.586 123.009 135.528 122.952 133.945 121.794C133.473 121.436 133.085 120.978 132.809 120.453C132.532 119.929 132.374 119.35 132.345 118.758C132.316 118.337 132.385 117.915 132.546 117.526C132.708 117.136 132.957 116.789 133.275 116.512C134.102 115.812 135.311 115.647 136.614 116.031L135.264 106.168L136.256 106.032L137.842 117.627L137.014 117.248C136.056 116.808 134.739 116.584 133.92 117.275C133.72 117.456 133.563 117.681 133.463 117.932C133.363 118.183 133.323 118.453 133.344 118.723C133.368 119.163 133.487 119.594 133.693 119.984C133.898 120.375 134.185 120.717 134.535 120.987C135.767 121.887 137.407 122.004 139.268 122.056L139.24 123.056Z" fill="#2F2E41"/>
<path d="M130.365 107.019H124.979V108.019H130.365V107.019Z" fill="#2F2E41"/>
<path d="M147.366 107.019H141.979V108.019H147.366V107.019Z" fill="#2F2E41"/>
<path d="M118.442 93.2097C114.104 92.7151 110.745 88.5596 110.376 84.3432C109.937 79.3271 112.859 74.563 116.866 71.7482C121.058 68.8046 126.28 67.5753 131.332 67.3047C141.189 66.8143 150.875 70.0068 158.508 76.2616C162.294 79.4058 165.83 83.411 167.17 88.2488C168.334 92.4502 167.387 97.2098 164.007 100.152C163.171 100.873 162.195 101.413 161.14 101.738C160.085 102.063 158.974 102.166 157.877 102.04C155.255 101.767 152.835 100.389 150.741 98.8663C146.668 95.9046 143.323 91.7787 138.36 90.231C134.721 89.0961 129.999 90.095 127.775 93.3857C127.27 94.139 126.943 94.997 126.819 95.895C126.773 96.0866 126.801 96.2884 126.898 96.4597C126.996 96.631 127.154 96.7589 127.342 96.8176C127.534 96.8693 127.739 96.8432 127.911 96.7452C128.084 96.6471 128.211 96.4849 128.265 96.2938C128.849 92.1491 133.946 90.6025 137.522 91.549C142.737 92.9291 146.237 97.5821 150.515 100.538C152.765 102.093 155.323 103.335 158.082 103.558C160.46 103.745 162.821 103.02 164.684 101.53C168.339 98.6443 169.737 93.6806 168.929 89.2116C167.993 84.0364 164.509 79.6009 160.687 76.1669C152.939 69.2789 142.879 65.563 132.514 65.7598C127.226 65.8812 121.71 66.9726 117.155 69.7669C112.737 72.4773 109.322 77.0119 108.876 82.2828C108.483 86.9223 110.972 91.7749 115.245 93.8075C116.253 94.2847 117.333 94.5897 118.442 94.7097C119.399 94.8189 119.391 93.318 118.442 93.2097Z" fill="#2F2E41"/>
<path d="M35.1135 120.593L38.2883 119.573C38.6285 118.921 38.006 119.339 38.3031 118.705C46.3354 101.57 38.912 91.0571 38.912 91.0571L33.1692 95.011C33.1551 94.9785 33.1435 94.9449 33.1292 94.9121C33.1292 94.9121 32.1087 92.6446 30.5213 94.3452C30.5213 94.3452 35.5103 106.477 29.9543 121.557L36.4174 124.505L38.9119 121.557L38.9686 121.273L34.5043 120.867L35.1135 120.593Z" fill="#CCCCCC"/>
<path d="M125.653 184.256C100.141 178.587 76.3865 190.322 76.3865 190.322L76.3218 190.264L66.8619 181.819L29.8977 121.5L38.912 121.557C63.9706 106.59 99.234 108.631 99.234 108.631C114.428 125.865 125.653 184.256 125.653 184.256Z" fill="#3F3D56"/>
<path opacity="0.1" d="M76.3219 190.264L66.862 181.819L29.8977 121.5L38.912 121.557C38.912 121.557 74.8399 169.005 76.3219 190.264Z" fill="black"/>
<path d="M80.4735 143.2C88.1966 140.832 93.2368 134.932 91.731 130.023C90.2252 125.114 82.7437 123.055 75.0206 125.423C67.2975 127.792 62.2573 133.692 63.7631 138.601C65.2688 143.51 72.7503 145.569 80.4735 143.2Z" fill="#FF5C95"/>
</g>
<defs>
<clipPath id="clip0_2038_248">
<rect width="266" height="302" rx="20" fill="white"/>
</clipPath>
</defs>
</svg>
