<svg width="266" height="302" viewBox="0 0 266 302" fill="none" xmlns="http://www.w3.org/2000/svg">
<rect width="266" height="302" rx="20" fill="#FFEFF4"/>
<g clip-path="url(#clip0_2038_249)">
<path d="M132.5 260C201.259 260 257 254.542 257 247.809C257 241.076 201.259 235.618 132.5 235.618C63.7406 235.618 8 241.076 8 247.809C8 254.542 63.7406 260 132.5 260Z" fill="#F2F2F2"/>
<path d="M81.6809 74.4379C81.5785 75.8071 81.0949 77.1199 80.9178 78.4832C80.717 79.9855 80.8941 81.5152 80.7958 83.0294C80.6974 84.5435 80.2607 86.1361 79.1082 87.1231C85.807 87.7031 92.4053 89.1302 98.7449 91.3703C96.8292 89.0107 96.7781 85.7151 96.8254 82.6871C96.8877 78.2078 96.9671 73.642 98.4302 69.4144C94.0659 68.4391 89.5465 68.3802 85.1582 69.2414C84.2064 69.4303 81.323 69.3123 80.8941 70.201C80.5835 70.8551 81.7519 73.4469 81.6809 74.4379Z" fill="#ED9DA0"/>
<path d="M89.6114 237.407C89.8479 237.756 90.1109 238.086 90.3983 238.394C90.8412 238.737 91.352 238.982 91.8969 239.114L96.0194 240.423C97.5495 240.911 99.249 241.54 99.8979 243.003C100.63 244.655 99.5867 246.664 98.045 247.604C96.5034 248.544 94.6148 248.682 92.8092 248.752C82.6995 249.142 72.5803 248.285 62.6802 246.201C62.4759 246.171 62.2794 246.102 62.1019 245.996C61.3151 245.466 61.9877 244.278 62.6684 243.637C65.3236 241.12 68.2108 238.481 71.826 237.899C73.7246 237.588 75.6338 237.714 77.5218 237.262C78.8789 236.936 80.1612 236.373 81.5146 236.039C84.0372 235.421 87.8099 235.201 89.6114 237.407Z" fill="#090814"/>
<path d="M68.9127 148.458C66.8785 153.825 66.7536 159.728 68.5588 165.176C67.1859 165.027 66.592 166.883 66.6275 168.267C66.6764 170.194 66.9684 172.108 67.4968 173.962C67.7486 174.842 68.0555 175.739 67.9571 176.644C67.8155 177.91 66.9185 178.948 66.4507 180.132C65.4672 182.637 66.4781 185.429 66.6474 188.115C66.8049 190.636 66.2029 193.133 65.7189 195.611C64.9174 199.745 64.4439 203.935 64.3028 208.144C64.2998 209.739 64.1958 211.332 63.9915 212.914C63.6376 215.148 62.8116 217.299 62.6531 219.552C62.429 223.06 63.9118 226.501 63.7783 230.017C63.6208 234.142 61.245 238.154 62.0751 242.208C62.1931 242.778 62.5109 243.451 63.0979 243.459C69.0297 243.533 74.5725 241.886 80.4414 242.747C81.0393 229.171 81.6213 215.533 84.2962 202.205C86.6564 190.34 90.6569 178.609 90.2831 166.514C90.0652 159.596 88.4225 152.812 87.4233 145.962C81.1519 144.57 74.5895 145.455 68.9114 148.459L68.9127 148.458Z" fill="#F2F2F2"/>
<path d="M95.1185 243.306C95.3549 243.654 95.618 243.984 95.9053 244.293C96.3483 244.636 96.8591 244.881 97.404 245.012L101.527 246.322C103.057 246.81 104.756 247.439 105.405 248.902C106.137 250.554 105.094 252.563 103.552 253.503C102.011 254.443 100.122 254.581 98.3163 254.651C88.2066 255.041 78.0873 254.184 68.1873 252.1C67.983 252.07 67.7865 252.001 67.609 251.895C66.8221 251.365 67.4947 250.177 68.1754 249.536C70.8307 247.019 73.7179 244.38 77.3331 243.798C79.2317 243.487 81.1409 243.613 83.0289 243.161C84.386 242.835 85.6683 242.273 87.0216 241.938C89.5443 241.32 93.317 241.099 95.1185 243.306Z" fill="#090814"/>
<path d="M70.9577 148.848C69.4394 150.814 68.9909 153.409 69.1954 155.871C69.3999 158.333 70.23 160.697 71.0443 163.028C69.9624 164.024 70.1868 165.738 70.3284 167.201C70.8438 172.636 68.9555 178.059 69.2309 183.51C69.3451 185.802 69.8447 188.064 69.9627 190.355C70.0925 192.861 69.7737 195.365 69.4749 197.855C67.5652 213.791 66.5147 229.819 66.3279 245.868C66.3279 247.347 66.3042 248.849 66.7213 250.265C69.5811 252.369 73.1726 252.652 76.634 251.866C80.0954 251.079 83.2543 249.325 86.3581 247.595C88.0584 246.715 89.6706 245.675 91.1728 244.488C91.6323 244.163 91.9723 243.696 92.1405 243.159C92.471 241.586 90.2839 240.874 89.028 239.855C87.2028 238.373 87.2302 235.628 87.4191 233.284L88.5598 219.063C88.8194 215.842 89.0712 212.56 88.3395 209.413C88.0404 208.138 87.5803 206.83 87.8555 205.547C88.304 203.462 90.4597 202.299 91.9266 200.745C94.1452 198.386 94.8297 195.039 95.341 191.854C97.7511 176.742 98.264 161.389 96.8677 146.15C93.9765 147.153 90.5494 146.606 87.5016 146.842C84.4538 147.078 81.4241 148.096 78.3362 148.18C75.765 148.238 72.5392 146.818 70.9577 148.848Z" fill="#F2F2F2"/>
<path d="M91.7865 78.7048C99.8247 78.7048 106.341 72.1903 106.341 64.1542C106.341 56.1181 99.8247 49.6035 91.7865 49.6035C83.7484 49.6035 77.2322 56.1181 77.2322 64.1542C77.2322 72.1903 83.7484 78.7048 91.7865 78.7048Z" fill="#ED9DA0"/>
<path d="M100.012 88.0884C95.3481 85.947 90.485 84.269 85.4927 83.0786C81.9756 82.2409 77.9605 81.7374 75.0214 83.8416C74.2345 84.4039 73.5227 85.2888 73.6917 86.2404C74.2102 86.2575 74.7057 86.4584 75.0897 86.8071C75.4738 87.1557 75.7214 87.6295 75.7883 88.1438C75.8748 88.9775 75.4658 89.7759 75.0646 90.5034L71.6698 96.7956C71.0194 97.9291 70.4604 99.1126 69.9981 100.335C69.3133 102.333 69.1643 104.473 69.0186 106.58L68.6252 112.29C68.3812 115.889 68.1334 119.503 68.4599 123.093C68.7039 125.803 69.2691 128.524 68.8848 131.218C68.5735 133.385 67.6575 135.419 67.1417 137.55C66.1741 141.561 66.6145 145.958 64.7383 149.639C65.5003 149.287 66.3604 149.209 67.1732 149.419C72.8691 150.469 77.3511 154.964 82.8801 156.682C84.2767 154.645 86.1688 153.143 87.7303 151.247C88.8917 149.826 89.6607 148.126 89.9607 146.316C91.141 147.889 92.1439 149.116 92.8482 150.941C92.9736 151.365 93.1882 151.758 93.4775 152.092C94.2211 152.816 95.4443 152.537 96.4394 152.234C101.318 150.762 106.363 149.908 111.454 149.689C112.272 149.654 112.67 149.261 112.925 148.482C113.181 147.703 113.04 146.862 112.886 146.06C111.907 140.817 110.813 135.567 110.632 130.238C110.522 127.092 110.738 123.903 110.341 120.765C110.144 119.227 109.802 117.713 109.464 116.203L106.655 103.725C106.498 103.029 105.75 102.574 105.432 101.932C104.142 99.3205 101.676 97.4329 100.401 94.8138C99.4383 92.6986 99.2995 90.3005 100.012 88.0884Z" fill="#FF5C95"/>
<path d="M79.5938 69.9795C79.5769 69.7759 79.6251 69.5721 79.7314 69.3976C79.887 69.2342 80.0821 69.1136 80.2979 69.0475C80.8844 68.7691 81.3641 68.3071 81.6644 67.7315C81.9646 67.156 82.0691 66.4982 81.9618 65.858L83.3385 65.5708L83.3817 60.7769C85.4273 59.6443 88.2161 60.5015 90.1396 59.1685C91.2215 58.4133 91.7762 57.1313 92.4369 55.9908C93.0977 54.8504 94.0813 53.7022 95.3938 53.6076C94.942 54.7565 94.7483 55.9907 94.8264 57.2228C94.9046 58.4549 95.2527 59.6547 95.8461 60.7374C97.2235 60.0404 98.3738 58.9655 99.1621 57.6385L99.8469 61.571C99.8606 61.8135 99.9644 62.0421 100.138 62.2121C100.496 62.4756 100.978 62.1451 101.294 61.8187L103.076 60.0687C103.826 61.9499 104.34 63.9168 104.607 65.9243C107.532 63.0849 108.442 58.5231 107.317 54.6061C106.192 50.6891 103.246 47.4448 99.6975 45.4431C96.1492 43.4413 92.0348 42.5999 87.9633 42.4502C86.5967 42.3703 85.2254 42.4588 83.8804 42.7138C82.4373 43.0767 81.0409 43.6045 79.7186 44.2867C77.6849 45.2424 75.6316 46.2926 74.1133 47.9442C71.4699 50.8229 70.8763 55.0545 71.1671 58.9556C71.5605 64.0682 73.2213 69.0037 75.151 73.7543C75.7922 75.3273 76.4767 76.9202 77.5349 78.261C79.1279 80.2783 83.0419 78.6033 82.5423 74.6153C82.1968 71.7678 79.5938 72.865 79.5938 69.9795Z" fill="#090814"/>
<path d="M85.3788 147.88C82.7292 157.908 78.6605 166.416 73.6061 172.498C72.081 174.327 70.4214 175.955 68.6358 176.49C68.3952 176.563 68.1487 176.616 67.899 176.647C67.4162 176.709 66.9257 176.665 66.4613 176.519C65.997 176.373 65.5697 176.128 65.2089 175.802C64.605 175.223 64.0873 174.561 63.6716 173.836C62.0195 171.157 60.7067 167.836 59.8268 164.11C59.3095 161.772 58.8803 159.369 58.5422 156.922C58.0214 153.498 57.5019 150.073 56.9838 146.646C56.4765 143.295 55.9648 139.905 55.8587 136.421C55.6865 130.762 56.6038 125.157 57.8927 120.018C58.1176 119.203 58.2942 118.376 58.4218 117.541C58.4218 117.482 58.4367 117.423 58.443 117.36C58.5958 116.003 58.5173 114.583 58.6552 113.215C58.9142 110.462 60.0098 108.181 61.2965 106.73C62.5832 105.279 64.0567 104.536 65.5195 103.812L67.7976 102.675L69.2116 101.972L74.9632 99.1047C75.7594 98.7114 76.5639 98.1883 77.3729 97.9251C78.2755 97.6105 78.269 97.7757 78.3377 99.4116C78.4672 102.377 78.4249 105.291 78.7623 108.229C79.0829 111.033 79.6475 113.734 80.0723 116.487C81.1446 123.436 81.3229 130.751 82.168 137.81C82.3613 139.418 82.6286 141.133 83.3271 142.135C84.1276 143.315 85.4747 143.606 85.6879 145.454C85.7219 146.274 85.6174 147.094 85.3788 147.88Z" fill="#090814"/>
<path d="M76.1388 89.8344C78.9671 87.4119 82.826 86.0826 86.4882 86.6881C88.6439 87.0382 90.6462 88.0094 92.5775 89.0477C96.3421 91.0455 100.052 93.3463 102.766 96.63C104.393 98.7011 105.744 100.975 106.786 103.394C107.296 104.451 107.692 105.56 107.966 106.702C108.926 111.146 106.569 115.562 104.3 119.502L99.9336 127.077C97.9276 130.557 95.9054 134.061 93.2937 137.116C92.0901 138.525 90.7682 139.826 89.4504 141.128L83.6639 146.838C83.6035 146.925 83.5228 146.996 83.4289 147.044C83.335 147.093 83.2307 147.118 83.125 147.117C83.0192 147.116 82.9153 147.09 82.8221 147.04C82.7289 146.99 82.6493 146.918 82.5901 146.831L80.6784 145.309C82.4396 144.092 84.0764 142.705 85.565 141.168C88.0668 138.58 90.1242 135.603 92.1697 132.638L98.5345 123.411C100.395 120.71 102.338 117.736 102.13 114.464C102.031 112.892 101.441 111.413 100.822 109.97C99.729 107.403 98.541 104.877 97.2587 102.391C95.8188 99.6033 94.2455 96.8504 92.1725 94.4945C90.0996 92.1386 87.4798 90.1692 84.4626 89.315C83.5627 89.0212 82.609 88.9299 81.6697 89.0477C79.6005 89.39 78.1296 91.1674 76.8195 92.8191L72.8309 97.9317C71.9223 99.0917 71.0879 100.437 71.0331 98.2344C70.9385 95.0925 74.1169 91.8545 76.1388 89.8344Z" fill="#090814"/>
<path d="M77.3735 124.324C78.1603 127.352 79.3207 130.789 82.2355 131.937C84.3007 132.751 86.72 132.091 88.5057 130.757C90.2913 129.424 91.5581 127.545 92.7225 125.645C93.708 123.938 94.7943 122.291 95.9757 120.713C98.3082 117.788 101.483 115.467 103.056 112.063C103.52 111.048 103.843 109.963 104.37 108.988C104.933 108.088 105.57 107.237 106.274 106.443C108.085 104.2 109.533 101.686 110.565 98.9947C110.927 98.0546 111.238 97.048 111.096 96.0532C110.816 94.1379 109.004 92.8792 107.316 91.9395C106.289 91.3691 105.216 90.8146 104.048 90.7281C102.341 90.5943 100.662 91.5148 99.611 92.8637C98.5999 94.2589 98.035 95.9274 97.9904 97.6498C97.8724 99.7458 98.2814 101.925 97.5969 103.907C97.2349 104.831 96.7349 105.696 96.1139 106.471C93.9043 109.426 91.1694 111.949 88.0459 113.915C87.9603 112.427 87.6376 110.963 87.0901 109.577C86.791 108.814 80.9298 109.577 80.167 109.702C78.6565 109.922 75.7298 110.095 74.778 111.534C73.8262 112.973 75.0061 115.393 75.3918 116.843L77.3735 124.324Z" fill="#ED9DA0"/>
<path d="M77.2324 91.2776C76.3617 91.9967 75.5513 92.7859 74.8093 93.6372C73.0629 95.7413 72.2091 98.4784 71.9887 101.204C71.7684 103.929 72.1422 106.666 72.6112 109.36C73.036 111.777 73.5381 114.177 74.1177 116.561C74.2789 114.763 75.7343 113.277 77.4219 112.628C79.1095 111.979 80.9621 112.05 82.7599 112.314C85.0736 112.656 87.3308 113.308 89.4707 114.253L90.3008 102.624C90.4756 101.055 90.4664 99.4712 90.2734 97.9046C90.0119 96.4507 89.4436 95.0692 88.6064 93.852C87.7692 92.6348 86.6822 91.6099 85.4179 90.8454C82.2637 88.9257 80.0647 88.8038 77.2324 91.2776Z" fill="#FF5C95"/>
<path d="M133.483 114.791C133.919 114.215 134.466 113.732 135.092 113.371C134.932 114.08 134.631 114.748 134.207 115.338C133.522 116.271 132.802 116.911 132.602 116.757C132.402 116.604 132.79 115.723 133.483 114.791Z" fill="#FF5C95"/>
<path d="M132.528 114.008H132.921C132.971 114.008 133.019 114.028 133.055 114.064C133.09 114.099 133.11 114.147 133.11 114.197V118.654H132.363V114.197C132.363 114.151 132.379 114.106 132.41 114.071C132.44 114.037 132.482 114.014 132.528 114.008H132.528Z" fill="#D6D6E3"/>
<path d="M139.384 121.8C139.384 123.469 138.721 125.069 137.541 126.249C136.36 127.429 134.759 128.092 133.09 128.092C131.421 128.092 129.82 127.429 128.64 126.249C127.459 125.069 126.796 123.469 126.796 121.8C126.796 118.917 128.736 117.211 131.383 116.711C131.946 116.607 132.518 116.556 133.09 116.558C133.485 116.557 133.879 116.581 134.27 116.628C137.181 116.989 139.384 118.728 139.384 121.8Z" fill="#FF6884"/>
<path opacity="0.1" d="M134.27 116.628C134.156 116.845 133.538 117.021 132.791 117.021C132.303 117.056 131.815 116.954 131.383 116.726C131.946 116.622 132.517 116.571 133.09 116.572C133.484 116.567 133.878 116.585 134.27 116.628Z" fill="black"/>
<path opacity="0.1" d="M134.142 127.942C132.473 127.942 130.872 127.279 129.691 126.099C128.511 124.919 127.848 123.318 127.848 121.649C127.848 118.818 129.716 117.123 132.289 116.592C131.985 116.615 131.683 116.654 131.384 116.71C128.737 117.209 126.798 118.916 126.798 121.799C126.798 123.468 127.461 125.068 128.641 126.248C129.821 127.428 131.422 128.091 133.091 128.091C133.567 128.092 134.041 128.038 134.504 127.93C134.381 127.937 134.27 127.942 134.142 127.942Z" fill="black"/>
<path d="M161.884 244.407C162.753 245.194 164.083 245.174 165.263 245.087L170.64 244.694C174.912 244.38 179.33 244.026 183.098 241.993C183.497 241.81 183.85 241.541 184.133 241.206C184.432 240.691 184.588 240.106 184.585 239.511C185.094 233.686 186.253 227.936 188.04 222.369C190.4 214.956 193.94 207.65 193.893 199.89V199.327C193.826 196.897 193.398 194.494 193.134 192.077C192.698 188.032 192.741 183.952 192.772 179.886C192.738 178.292 192.849 176.699 193.103 175.125C193.352 173.847 194.282 172.565 193.712 171.44C192.607 169.257 188.598 168.455 186.443 168.376C183.54 168.274 180.685 169.033 177.88 169.788C177.026 170.02 176.133 170.268 175.488 170.87C174.623 171.679 174.375 172.95 174.343 174.134C174.194 179.384 177.219 184.268 177.458 189.51C177.502 190.454 177.458 191.477 178.009 192.263C178.372 192.692 178.767 193.093 179.189 193.463C180.369 194.757 180.404 196.708 180.322 198.461C180.286 199.169 180.247 199.877 180.2 200.585C179.557 210.033 177.648 219.351 174.524 228.29C174.223 229.245 173.827 230.167 173.344 231.043C172.554 232.274 171.568 233.366 170.425 234.276C168.805 235.659 167.069 236.901 165.236 237.988C164.013 238.712 162.707 239.404 161.869 240.552C161.031 241.701 160.846 243.44 161.884 244.407Z" fill="#ED9DA0"/>
<path d="M161.884 244.407C162.754 245.194 164.083 245.174 165.263 245.088L170.64 244.694C174.912 244.38 179.33 244.026 183.098 241.993C183.497 241.81 183.85 241.542 184.133 241.206C184.432 240.692 184.589 240.106 184.585 239.511C185.094 233.686 186.253 227.936 188.04 222.369C190.4 214.956 193.94 207.65 193.893 199.89C189.347 200.392 184.774 200.618 180.2 200.566C179.558 210.014 177.648 219.332 174.524 228.272C174.223 229.226 173.828 230.148 173.344 231.024C172.555 232.255 171.569 233.347 170.425 234.257C168.805 235.64 167.069 236.882 165.237 237.969C164.013 238.693 162.707 239.385 161.869 240.534C161.032 241.682 160.846 243.44 161.884 244.407Z" fill="#F2F2F2"/>
<path d="M173.764 242.747C175.056 242.285 176.297 241.692 177.469 240.978L183.398 237.635C183.933 237.288 184.53 237.047 185.156 236.923L185.864 242.213C186.041 243.511 186.135 245.037 185.156 245.906C184.806 246.185 184.405 246.393 183.976 246.519C181.824 247.263 179.503 247.278 177.225 247.349C170.231 247.573 163.167 248.391 156.275 247.164C155.434 247.015 154.52 246.771 154.013 246.103C153.435 245.316 153.6 244.176 154.159 243.378C154.771 242.619 155.551 242.012 156.436 241.604C158.191 240.66 160.012 239.858 161.833 239.052C161.946 238.986 162.079 238.964 162.207 238.99C162.384 239.049 162.439 239.265 162.487 239.446C162.806 240.736 163.844 241.755 165.028 242.364C165.043 242.362 171.144 243.581 173.764 242.747Z" fill="#FF5C95"/>
<path d="M165.818 249.913C166.687 250.699 168.017 250.679 169.197 250.593L174.574 250.2C178.846 249.885 183.264 249.531 187.032 247.498C187.431 247.316 187.784 247.047 188.067 246.711C188.366 246.197 188.523 245.612 188.519 245.016C189.029 239.191 190.187 233.442 191.974 227.874C194.334 220.461 197.874 213.156 197.827 205.395V204.833C197.761 202.403 197.332 200 197.068 197.583C196.633 193.537 196.675 189.458 196.706 185.391C196.673 183.797 196.783 182.204 197.037 180.63C197.286 179.352 198.217 178.07 197.647 176.945C196.541 174.763 192.533 173.961 190.377 173.882C187.474 173.779 184.619 174.539 181.814 175.294C180.96 175.526 180.067 175.773 179.422 176.375C178.557 177.184 178.309 178.456 178.278 179.639C178.128 184.89 181.153 189.774 181.393 195.016C181.436 195.96 181.393 196.982 181.943 197.769C182.307 198.197 182.701 198.598 183.124 198.968C184.304 200.262 184.339 202.213 184.257 203.967C184.221 204.675 184.182 205.383 184.135 206.091C183.492 215.538 181.583 224.857 178.458 233.796C178.157 234.75 177.762 235.673 177.278 236.549C176.489 237.779 175.503 238.871 174.359 239.781C172.739 241.165 171.003 242.407 169.171 243.494C167.948 244.218 166.642 244.91 165.804 246.058C164.966 247.206 164.78 248.945 165.818 249.913Z" fill="#ED9DA0"/>
<path d="M165.818 249.913C166.687 250.699 168.017 250.68 169.197 250.593L174.574 250.2C178.846 249.885 183.264 249.531 187.032 247.498C187.431 247.316 187.784 247.047 188.066 246.711C188.366 246.197 188.522 245.612 188.519 245.016C189.028 239.192 190.187 233.442 191.974 227.874C194.334 220.461 197.874 213.156 197.827 205.395C193.281 205.898 188.708 206.124 184.134 206.072C183.492 215.519 181.582 224.838 178.458 233.777C178.157 234.731 177.761 235.654 177.278 236.53C176.488 237.76 175.502 238.852 174.359 239.763C172.738 241.146 171.003 242.388 169.17 243.475C167.947 244.198 166.641 244.891 165.803 246.039C164.965 247.187 164.78 248.945 165.818 249.913Z" fill="#F2F2F2"/>
<path d="M177.698 248.253C178.99 247.79 180.231 247.197 181.403 246.483L187.331 243.14C187.867 242.794 188.463 242.552 189.089 242.428L189.797 247.718C189.975 249.016 190.069 250.542 189.089 251.411C188.74 251.69 188.339 251.899 187.909 252.025C185.757 252.768 183.436 252.784 181.159 252.855C174.165 253.079 167.1 253.897 160.208 252.67C159.368 252.52 158.454 252.276 157.947 251.608C157.368 250.821 157.534 249.681 158.092 248.883C158.705 248.124 159.484 247.517 160.37 247.109C162.125 246.165 163.946 245.363 165.767 244.558C165.88 244.491 166.013 244.469 166.141 244.495C166.318 244.554 166.373 244.771 166.421 244.951C166.739 246.241 167.778 247.26 168.962 247.87C168.977 247.868 175.078 249.087 177.698 248.253Z" fill="#FF5C95"/>
<path d="M158.191 90.389C160.106 88.0294 160.157 84.7337 160.11 81.7057C160.11 80.5261 160.075 79.3069 160.031 78.1074V78.0797C159.978 75.8752 159.745 73.6787 159.335 71.5121C159.128 70.4724 158.852 69.4476 158.509 68.4446C158.769 68.3855 159.028 68.3304 159.296 68.2834C163.419 67.4693 167.662 67.4693 171.785 68.2834C172.497 68.425 174.299 68.3935 175.325 68.7436C175.618 68.8134 175.872 68.992 176.037 69.243C176.238 69.6638 175.825 70.8829 175.526 71.9645C175.362 72.4519 175.269 72.9606 175.251 73.4747C175.29 73.9577 175.364 74.4373 175.471 74.9101C175.656 75.7792 175.9 76.6405 176.014 77.5214C176.215 79.0238 176.037 80.5535 176.136 82.0676C176.234 83.5818 176.671 85.1744 177.823 86.1614C171.127 86.7354 164.53 88.1559 158.191 90.389Z" fill="#ED9DA0"/>
<path d="M167.116 76.5419C175.154 76.5419 181.67 70.0273 181.67 61.9912C181.67 53.9551 175.154 47.4406 167.116 47.4406C159.078 47.4406 152.562 53.9551 152.562 61.9912C152.562 70.0273 159.078 76.5419 167.116 76.5419Z" fill="#ED9DA0"/>
<path d="M158.45 122.626C156.045 111.813 158.241 100.201 163.986 91.664C165.263 89.7619 166.549 87.8086 168.226 86.6694C170.221 85.3208 172.583 85.2742 174.842 85.2465C176.837 85.2465 178.895 85.2465 180.729 86.2556C183.208 87.5995 184.917 90.5186 186.36 93.4175C187.898 96.5056 189.289 99.8491 189.523 103.495C189.648 105.657 189.347 107.851 189.6 110.006C189.922 112.736 191.12 115.182 191.61 117.87C191.878 119.321 191.932 120.823 192.104 122.302C192.361 124.313 192.738 126.307 193.232 128.273C196.793 143.388 201.765 158.136 208.082 172.323C209.913 176.43 211.872 180.489 213.102 184.939C213.658 186.953 214.061 189.125 213.607 191.199C212.849 194.64 206.759 196.823 206.164 197.161C205.577 197.505 204.902 197.666 204.223 197.626C181.017 198.408 160.963 202.449 160.821 201.007C158.569 178.22 155.536 156.772 159.015 134.259C159.484 131.222 159.316 126.302 158.613 123.335L158.45 122.626Z" fill="#FF5C95"/>
<path d="M185.932 103.575C186.349 105.219 186.869 106.835 187.009 108.566C187.122 109.95 186.986 111.35 187.047 112.738C187.155 114.266 187.387 115.782 187.739 117.273C188.293 120.137 188.974 122.946 189.784 125.7C190.169 126.939 190.614 128.304 190.304 129.582C189.993 130.86 189.031 131.651 188.755 132.921C188.467 134.262 189.042 135.674 189.775 136.653C190.508 137.632 191.425 138.328 192.103 139.37C192.841 140.507 193.252 141.958 193.772 143.303C194.511 145.082 194.17 146.835 195.117 148.419L197.741 155.158C197.94 155.579 198.224 155.954 198.575 156.259C199.724 157.077 202.966 154.797 204.135 154.055C205.687 153.044 207.503 153.638 209.219 153.806C210.934 153.974 213 153.366 213.613 151.171C213.816 150.268 213.858 149.336 213.737 148.418C213.481 145.339 212.822 142.308 211.776 139.401C211.15 137.678 210.385 136.03 209.992 134.186C209.67 132.688 209.607 131.111 209.351 129.589C209.095 128.067 208.644 126.612 208.282 125.125C205.712 114.562 207.643 103.004 206.813 91.9299C206.506 87.8439 205.595 83.3646 203.025 81.2371C201.5 79.9747 199.666 79.778 197.853 79.6641L197.034 79.6131L195.715 79.5226C193.807 79.3928 191.893 79.2945 190.034 79.849C187.419 80.6356 184.272 83.4159 184.168 87.4104C184.051 92.8519 184.644 98.2855 185.933 103.574L185.932 103.575Z" fill="#090814"/>
<path d="M172.613 82.834C170.452 82.488 168.189 82.3109 166.138 83.1486C164.177 83.9548 162.612 85.6106 161.203 87.3525C160.228 88.4957 159.434 89.7806 158.848 91.1631C157.646 94.2462 158.115 97.8013 158.848 101.065C160.847 110.056 164.816 118.727 171.186 124.661C173.107 126.405 175.171 127.984 177.358 129.38C180.178 131.225 183.09 132.92 186.209 133.986C187.081 134.285 188.007 134.536 188.899 134.324C189.372 134.217 189.798 133.962 190.115 133.595C190.432 133.229 190.624 132.77 190.661 132.287C185.55 129.082 180.968 124.941 176.416 120.819C175.159 119.735 173.991 118.552 172.925 117.28C171.31 115.255 170.172 112.808 168.606 110.736C167.196 108.876 165.434 107.307 164.376 105.179C163.708 103.71 163.264 102.148 163.061 100.546C162.54 97.2549 162.441 93.7586 163.611 90.6796C164.782 87.6005 167.464 85.0716 170.461 85.1267C171.998 85.1541 173.46 85.8346 174.878 86.4993L183.796 90.7001C183.687 90.645 184.307 88.9186 184.279 88.6775C184.195 87.9263 184.075 87.9145 183.574 87.3444C182.721 86.3926 181.396 85.7242 180.314 85.1697C177.886 83.9911 175.287 83.2029 172.613 82.834Z" fill="#FF5C95"/>
<path d="M162.112 55.3056C162.104 65.2715 164.115 64.1889 166.05 62.9822C166.33 67.9768 165.925 73.0853 164.083 77.7336C162.241 82.3819 158.847 86.5428 154.292 88.6074C158.336 89.2839 161.967 86.3816 165.566 84.4191C168.076 83.0546 172.363 84.4583 175.109 83.6325C177.438 82.9479 179.829 82.3504 181.93 81.1272C185.832 78.8501 186.717 72.2 187.508 67.7562C188.298 63.3124 187.579 58.7111 186.265 54.3852C185.827 52.8531 185.236 51.3694 184.499 49.9569C183.485 48.102 182.098 46.4774 180.425 45.1858C178.752 43.8941 176.828 42.9635 174.777 42.4527C172.726 41.942 170.591 41.8622 168.507 42.2183C166.423 42.5745 164.436 43.3589 162.671 44.522C159.044 46.909 155.702 48.3183 152.933 51.6497C152.539 52.1099 155.944 54.9948 156.597 54.6724C156.409 55.3844 159.952 57.2529 162.112 55.3056Z" fill="#090814"/>
<path d="M174.948 92.8861C177.037 97.3278 178.885 101.879 180.483 106.521C181.773 110.261 182.91 114.189 182.481 118.122C182.051 122.055 179.727 126.026 175.951 127.266C174.346 127.792 172.627 127.796 170.94 127.836C166.898 127.931 162.865 128.256 158.86 128.811C156.996 129.119 155.117 129.328 153.231 129.437C150.564 129.523 147.897 129.106 145.238 129.323C140.934 129.673 136.847 131.682 132.528 131.682C132.001 131.715 131.474 131.618 130.994 131.399C130.207 130.974 129.857 130.054 129.589 129.205C128.987 127.286 128.516 125.083 129.534 123.349C130.789 121.214 133.641 120.785 136.115 120.596C141.686 120.202 147.262 119.927 152.845 119.77C157.607 119.637 162.77 119.456 166.464 116.443C166.713 116.265 166.916 116.031 167.057 115.759C167.197 115.298 167.18 114.805 167.01 114.355C165.546 108.636 164.918 102.735 165.146 96.8358C165.12 96.3066 165.258 95.7824 165.539 95.3335C165.873 94.9735 166.308 94.7216 166.786 94.61C170.084 93.5521 173.615 93.4539 176.966 94.3268" fill="#ED9DA0"/>
<path d="M164.573 96.6917C163.973 96.9255 163.461 97.3416 163.11 97.8816C163.272 96.0233 163.053 94.1475 163.086 92.2755C163.118 90.4035 163.434 88.4519 164.505 86.999C165.868 85.145 168.186 84.481 170.354 84.4188C173.5 84.3254 176.756 85.3324 179.061 87.6941C180.571 89.2809 181.529 91.3129 181.791 93.4875C181.864 94.098 182.106 96.3886 181.528 96.781C181.022 97.1285 179.1 95.9299 178.482 95.7382C173.897 94.2497 168.913 94.5915 164.574 96.692L164.573 96.6917Z" fill="#FF5C95"/>
</g>
<defs>
<clipPath id="clip0_2038_249">
<rect width="249" height="218" fill="white" transform="translate(8 42)"/>
</clipPath>
</defs>
</svg>
