<svg width="266" height="302" viewBox="0 0 266 302" fill="none" xmlns="http://www.w3.org/2000/svg">
<rect width="266" height="302" rx="20" fill="#FFEFF4"/>
<g clip-path="url(#clip0_2038_251)">
<path d="M117.696 107.754C117.696 107.754 69.9198 128.551 102.214 159.437C134.508 190.323 142.092 128.068 142.092 128.068L117.696 107.754Z" fill="#090814"/>
<path d="M103.507 99.9838C103.507 81.8322 118.207 67.1174 136.341 67.1174C154.475 67.1174 169.175 81.8322 169.175 99.9838C169.175 114.705 159.506 127.164 146.178 131.348L139.831 173.338L107.472 146.346C107.472 146.346 114.463 137.433 118.212 127.384C109.351 121.498 103.507 111.426 103.507 99.9838Z" fill="#ED9DA0"/>
<path d="M147.587 134.131L114.825 132.499C114.825 132.499 114.621 138.943 90.3638 142.293C90.3638 142.293 60.8124 149.748 60.7909 171.067L56.5635 234.296L210.296 234.593L200.215 159.209C200.215 159.209 194.453 144.656 173.975 140.809C173.975 140.809 154.352 140.649 147.587 134.131Z" fill="#FF5C95"/>
<path d="M152.035 225.392C152.035 225.392 129.965 200.822 91.6982 191.262L83.9453 206.546L154.026 235.991L236.515 211.276C236.515 211.276 225.214 199.783 213.706 195.417C213.706 195.417 159.244 209.652 152.035 225.392Z" fill="#E6E6E6"/>
<path d="M242.166 207.732L227.356 231.772L217.569 247.651L201.825 252.019L150.104 266.349C140.044 274.202 134.093 266.943 134.093 266.943L100.097 253.928L82.4791 247.177L79.8374 246.169L79.9042 244.92L80.8713 226.136L82.0586 203.131L150.258 229.248C157.689 234.73 160.631 228.66 160.631 228.66L242.166 207.732Z" fill="#090814"/>
<path d="M228.235 238.68L222.003 248.427C221.353 249.444 220.409 250.237 219.296 250.701L209.05 254.975C206.455 256.057 203.458 255.166 201.879 252.838C199.583 249.451 197.341 245.02 197.282 242.55C197.102 234.496 204.834 227.785 214.554 227.565C217.468 227.495 221.697 228.537 225.363 229.954C228.863 231.305 230.257 235.517 228.235 238.68Z" fill="#ED9DA0"/>
<path d="M113.6 243.191C112.266 249.1 106.769 253.18 100.098 253.928C97.8962 254.182 95.5679 254.069 93.2131 253.534C88.7436 252.526 84.9944 250.189 82.4794 247.177C81.9325 246.536 81.4452 245.868 81.0249 245.174L78.9862 245.305C76.6328 245.455 74.674 243.519 74.7954 241.162L75.3297 230.784C75.4426 228.592 77.3201 226.913 79.5089 227.047L85.0345 227.385C88.9169 224.847 94.2138 223.852 99.6373 225.081C109.124 227.224 115.375 235.331 113.6 243.191Z" fill="#ED9DA0"/>
<path d="M56.5635 234.296L68.9377 246.282C71.0378 248.316 74.5537 246.854 74.5843 243.929C74.6679 235.925 75.7098 224.971 80.8713 226.136L59.1524 221.944L56.5635 234.296Z" fill="#FF5C95"/>
<path d="M127.56 53.077C120.38 51.693 112.651 53.4533 106.777 57.811C100.902 62.1686 96.97 69.0574 96.2032 76.3361C93.0333 76.8406 91.2389 80.4327 91.203 83.6453C91.167 86.858 92.3341 89.962 92.6377 93.1605C92.8529 95.4284 92.6333 97.7382 93.0699 99.974C93.5064 102.21 94.8056 104.483 96.9701 105.187C93.5481 106.857 93.6116 112.424 96.6393 114.734C99.6669 117.044 104.233 116.35 107.217 113.983C110.2 111.616 111.868 107.962 112.972 104.315C114.076 100.668 114.732 96.8722 116.225 93.3668C120.528 83.2637 132.247 76.921 143.049 78.8483C153.851 80.7757 162.658 90.7808 163.209 101.75C163.373 105.004 163.052 108.728 165.365 111.019C168.555 114.179 174.161 111.969 177.087 108.563C180.874 104.156 182.538 97.9989 181.488 92.2814C180.438 86.564 176.694 81.4023 171.589 78.6316C170.545 68.5401 164.522 59.0861 155.82 53.8833C147.119 48.6805 135.948 47.8529 126.576 51.7167" fill="#090814"/>
</g>
<defs>
<clipPath id="clip0_2038_251">
<rect width="243" height="270" fill="white" transform="translate(11)"/>
</clipPath>
</defs>
</svg>
