<?xml version="1.0" encoding="UTF-8"?>
<svg version="1.1" xmlns="http://www.w3.org/2000/svg" width="1536" height="1024">
<path d="M0 0 C506.88 0 1013.76 0 1536 0 C1536 337.92 1536 675.84 1536 1024 C1029.12 1024 522.24 1024 0 1024 C0 686.08 0 348.16 0 0 Z " fill="#A6DEF2" transform="translate(0,0)"/>
<path d="M0 0 C1.22294441 -0.00751056 2.44588882 -0.01502111 3.70589215 -0.02275926 C5.07291439 -0.01592814 6.43993529 -0.00882354 7.80695486 -0.00147593 C9.25745515 -0.00460313 10.7079531 -0.00904523 12.15844578 -0.01468903 C16.17191147 -0.02644128 20.18516256 -0.01934498 24.19862502 -0.00935517 C28.55448399 -0.00178145 32.91030869 -0.01151028 37.26616287 -0.01908517 C44.90946546 -0.02995092 52.55270455 -0.02957279 60.19601011 -0.02194369 C71.56156939 -0.01062989 82.92707476 -0.01637988 94.29263364 -0.02556861 C114.58754323 -0.04139474 134.88242455 -0.03998519 155.17733686 -0.03133187 C172.93735549 -0.02379622 190.69736373 -0.02180995 208.45738363 -0.0253998 C209.63375046 -0.02562896 210.81011728 -0.02585811 212.02213158 -0.02609421 C216.79694219 -0.02702817 221.57175279 -0.02798337 226.34656338 -0.02897351 C271.17190348 -0.03815817 315.99722553 -0.02981798 360.82256285 -0.01368281 C400.67958045 0.00055485 440.53656929 -0.000719 480.39358664 -0.01506579 C525.134999 -0.03111677 569.87639541 -0.03750689 614.61781025 -0.028229 C619.38410806 -0.02726679 624.15040588 -0.02632827 628.9167037 -0.0253998 C630.67718318 -0.02504396 630.67718318 -0.02504396 632.47322791 -0.02468092 C650.2255599 -0.02126316 667.97788038 -0.02526925 685.73021078 -0.03283846 C705.90789678 -0.0413987 726.08554999 -0.03930932 746.26323187 -0.02299623 C757.56708258 -0.01415978 768.87086236 -0.01365191 780.17471129 -0.02493476 C787.7132691 -0.03163183 795.25176973 -0.02753009 802.79031902 -0.01442045 C807.09352261 -0.0072435 811.39658468 -0.00492741 815.6997841 -0.0156384 C819.60795124 -0.02526753 823.51585021 -0.02130284 827.42399747 -0.00609642 C828.83533467 -0.00305365 830.24669365 -0.00512851 831.65801375 -0.01271423 C833.56335254 -0.02223535 835.46876069 -0.01170132 837.37408733 0 C838.43236857 0.00020328 839.49064981 0.00040655 840.58100018 0.00061599 C843.18704367 0.37604749 843.18704367 0.37604749 845.02685047 1.67289706 C847.06100572 4.65901385 846.59497028 8.18027376 846.56456709 11.67043531 C846.57110757 12.96082017 846.57110757 12.96082017 846.57778019 14.27727342 C846.58880659 17.18576164 846.57828018 20.09378272 846.56799459 23.0022682 C846.57144824 25.09812035 846.57621082 27.1939707 846.58217633 29.28981721 C846.59475626 35.06929581 846.58848428 40.84862672 846.57921767 46.628106 C846.57245603 52.8531281 846.58289403 59.07812403 846.59115744 65.303141 C846.60375427 76.79987187 846.60262344 88.29653654 846.59442303 99.7932671 C846.58688512 110.41295752 846.58490216 121.03263058 846.58849096 131.65232313 C846.5888347 132.70775698 846.5888347 132.70775698 846.58918537 133.78451274 C846.59011934 136.64053431 846.59107454 139.49655588 846.59206466 142.35257744 C846.60124776 169.16038921 846.59291163 195.96817081 846.57677397 222.77597792 C846.56253648 246.60850426 846.56381033 270.44098251 846.57815695 294.27350843 C846.59421058 321.03136373 846.60059657 347.78919234 846.59132016 374.54705179 C846.59035796 377.39795847 846.58941944 380.24886516 846.58849096 383.09977186 C846.58813511 384.15276987 846.58813511 384.15276987 846.58777208 385.22704057 C846.58435541 395.84170911 846.58835837 406.45635842 846.59592962 417.0710243 C846.60449287 429.13681897 846.60210415 441.2025444 846.58608739 453.26833689 C846.57817933 459.42962292 846.57515607 465.59081113 846.58503485 471.75209653 C846.59392996 477.38488991 846.58913503 483.01749417 846.57310219 488.65027022 C846.56973228 490.69530597 846.57149751 492.74035748 846.57872956 494.78538322 C846.58776487 497.55104051 846.578585 500.31603772 846.56456709 503.08165967 C846.57159059 503.88792858 846.57861409 504.69419748 846.58585042 505.52489877 C846.53116786 510.87006315 846.53116786 510.87006315 844.83000451 513.37137526 C842.30635491 514.91458956 840.18343685 514.74432471 837.24559164 514.73681104 C836.004587 514.74093503 834.76358236 514.74505903 833.48497152 514.74930799 C832.10742114 514.73869057 830.72987294 514.72778614 829.35232687 514.71662366 C827.9036271 514.71577756 826.45492604 514.7162522 825.00622702 514.71795118 C821.07046745 514.71881324 817.13498121 514.70115362 813.19928527 514.68022931 C809.08732387 514.66149746 804.97535646 514.65971483 800.86335897 514.65615308 C793.07542713 514.64682233 785.28762136 514.62219465 777.49974507 514.59210461 C768.63408204 514.55859263 759.76841304 514.54208266 750.90270245 514.52701831 C732.664078 514.49564596 714.42557096 514.44286548 696.18704367 514.37604749 C696.05974654 513.55513451 696.05974654 513.55513451 695.92987776 512.71763742 C695.54107119 510.2160799 695.14996559 507.71488695 694.75882101 505.21369398 C694.62535772 504.35274877 694.49189444 503.49180357 694.35438681 502.60476911 C693.44435741 496.79956822 692.40342275 491.1005708 690.81204367 485.43854749 C690.57364767 484.57938734 690.33525167 483.72022718 690.08963156 482.83503187 C687.30793256 473.22656967 683.96686655 463.80047736 680.62454367 454.37604749 C680.34532064 453.57788618 680.06609762 452.77972486 679.7784133 451.95737684 C678.96887666 449.65418016 678.14142953 447.35824158 677.30813742 445.06354749 C676.94882887 444.03353872 676.94882887 444.03353872 676.58226156 442.98272169 C674.58549227 437.59021242 671.90705475 433.11383235 666.93704367 429.93854749 C659.71350499 428.46100549 654.19243156 430.41504697 648.18704367 434.37604749 C647.58891867 433.73667249 646.99079367 433.09729749 646.37454367 432.43854749 C642.83660254 429.10277443 639.33177811 428.99359352 634.68313742 429.00885999 C630.3021043 429.65333122 626.83053428 431.96428065 623.18704367 434.37604749 C622.58891867 433.71604749 621.99079367 433.05604749 621.37454367 432.37604749 C616.7471635 429.47259327 612.52103312 429.67716634 607.18704367 430.37604749 C604.26157927 431.72697629 604.26157927 431.72697629 602.18704367 433.37604749 C601.19704367 433.37604749 600.20704367 433.37604749 599.18704367 433.37604749 C598.68144458 431.94050724 598.18276877 430.5025273 597.68704367 429.06354749 C597.40860617 428.26303968 597.13016867 427.46253187 596.84329367 426.63776624 C596.18704367 424.37604749 596.18704367 424.37604749 596.18704367 421.37604749 C596.74391867 421.3618678 597.30079367 421.34768812 597.87454367 421.33307874 C604.04286953 420.94755838 608.43431821 419.39070264 613.18704367 415.37604749 C615.14205223 412.84624043 615.14205223 412.84624043 616.18704367 410.37604749 C616.51704367 409.71604749 616.84704367 409.05604749 617.18704367 408.37604749 C617.30579597 405.94710021 617.36532611 403.54588956 617.37991476 401.11579359 C617.392181 399.99346326 617.392181 399.99346326 617.40469503 398.8484596 C617.42956012 396.3654762 617.44607169 393.8825502 617.46048117 391.39948499 C617.46846668 390.12640422 617.46846668 390.12640422 617.47661352 388.82760465 C617.50335549 384.33155442 617.52272324 379.83553199 617.53714132 375.3394264 C617.5537525 370.70571737 617.59849703 366.07272467 617.64951277 361.43928564 C617.68325826 357.86864426 617.69472694 354.29817097 617.7003684 350.72738492 C617.70706541 349.02021435 617.72224704 347.31305423 617.74625921 345.6060394 C618.18546048 334.04404298 618.18546048 334.04404298 613.61029196 323.73923719 C608.16081694 318.5197205 602.27406882 317.25433527 594.95997572 317.2390331 C593.67280555 317.23395856 592.38563537 317.22888402 591.05946004 317.2236557 C589.62785669 317.22305404 588.19625329 317.22255495 586.76464987 317.22214735 C585.2462721 317.21813201 583.72789539 317.21369367 582.20951998 317.20886779 C578.03068354 317.1969044 573.85185865 317.19125439 569.67300844 317.18668664 C565.16840689 317.1807297 560.66381914 317.16912012 556.15922689 317.15839612 C545.27755341 317.13387492 534.39587536 317.11924574 523.51418275 317.10633606 C520.44085898 317.10262404 517.36753566 317.09865082 514.29421234 317.09458339 C495.21006708 317.0693477 476.1259211 317.0472942 457.04176283 317.03485525 C452.62143975 317.03192554 448.20111669 317.02896388 443.78079367 317.02594984 C442.13281606 317.02483076 442.13281606 317.02483076 440.45154597 317.02368908 C422.65292647 317.01103467 404.85440685 316.97781016 387.05583404 316.936148 C368.78335793 316.89372706 350.51093296 316.87016006 332.23840773 316.86493468 C321.9786632 316.86152085 311.71907478 316.84976875 301.45937872 316.81683195 C292.72198747 316.78882817 283.98478434 316.77783359 275.24735169 316.78902741 C270.7903482 316.79421312 266.33373866 316.79133303 261.87679243 316.76656187 C257.79294066 316.74405403 253.70976546 316.74482078 249.62590171 316.76376574 C248.15208876 316.76656361 246.67822978 316.7609789 245.20449077 316.7459528 C236.62585144 316.66386549 229.25399064 317.05898046 222.18704367 322.37604749 C220.33654111 324.67231318 219.37861534 326.6302519 218.18704367 329.37604749 C217.85704367 330.03604749 217.52704367 330.69604749 217.18704367 331.37604749 C217.07942496 333.67184298 217.03811327 335.9708298 217.02591085 338.2691139 C217.02094595 338.97831983 217.01598104 339.68752576 217.01086569 340.41822278 C216.99622823 342.77136167 216.98943736 345.124433 216.98391867 347.47760999 C216.97816589 349.1146848 216.97240817 350.75175959 216.96664572 352.38883436 C216.95612943 355.82712084 216.95029175 359.26538391 216.94680929 362.70368421 C216.94134133 367.09506463 216.91735264 371.48613235 216.88883734 375.87741506 C216.8701433 379.262765 216.86500164 382.6480409 216.86347342 386.03343809 C216.86045859 387.65125576 216.85246982 389.26907249 216.83928823 390.88683927 C216.22481229 403.72283547 216.22481229 403.72283547 221.56833029 414.87595594 C226.18653257 418.95666302 229.77345553 420.62398677 235.87981939 420.63776052 C237.04775431 420.64522601 238.21568923 420.6526915 239.41901612 420.66038322 C240.70305054 420.65844849 241.98708496 420.65651376 243.31002951 420.65452039 C244.6870436 420.65952231 246.06405474 420.6653978 247.44106174 420.67207313 C251.22876342 420.6878998 255.01639098 420.69130527 258.80412173 420.69272172 C262.88727406 420.69641112 266.97038549 420.71156429 271.053514 420.72533643 C278.12907373 420.74762757 285.20461894 420.76262969 292.2802062 420.77270353 C302.51035586 420.78727916 312.74045497 420.81281283 322.970575 420.84103481 C339.5676202 420.88652312 356.16467266 420.92312949 372.7617507 420.95417249 C388.88578712 420.98434969 405.00980576 421.01869614 421.13382101 421.05866468 C422.12743964 421.06112623 423.12105828 421.06358778 424.14478657 421.06612392 C429.12939993 421.07849836 434.11401308 421.09095492 439.09862614 421.10345232 C480.46140724 421.20705064 521.82421025 421.29624382 563.18704367 421.37604749 C563.38669729 421.94186536 563.58635092 422.50768323 563.79205465 423.0906471 C565.89970895 429.06274546 568.00957445 435.03405948 570.12063742 441.00495374 C570.90471567 443.22350958 571.68825884 445.44225461 572.47122335 447.66120374 C573.60680552 450.87917058 574.74419462 454.09649212 575.88235617 457.31354749 C576.43515249 458.87879163 576.43515249 458.87879163 576.99911642 460.47565687 C578.6566966 465.1493623 580.33540561 469.81005666 582.1157546 474.43854749 C582.4036083 475.18757337 582.691462 475.93659925 582.98803854 476.70832288 C583.51585377 478.06972896 584.0505017 479.42851425 584.59332418 480.78400648 C585.18084439 482.29397934 585.69244581 483.83313757 586.18704367 485.37604749 C585.85704367 486.03604749 585.52704367 486.69604749 585.18704367 487.37604749 C584.31821554 486.83335218 583.44938742 486.29065687 582.55423117 485.73151624 C581.39025337 485.00872358 580.22618608 484.28607501 579.06204367 483.56354749 C578.49227804 483.20712171 577.92251242 482.85069593 577.33548117 482.48346937 C569.38792166 477.56140126 563.63907973 474.97766407 554.18704367 476.37604749 C550.20361372 478.29908264 547.84490927 481.31844036 546.18704367 485.37604749 C545.65280907 490.36223707 546.7387656 494.40966217 549.87454367 498.31354749 C553.90950879 502.51769354 558.67278952 505.78664968 563.47488546 509.0515846 C568.09636691 512.19469398 568.09636691 512.19469398 569.18704367 514.37604749 C514.41066781 514.42738183 459.63428968 514.47514636 404.85789633 514.50307691 C404.04771141 514.50349108 403.2375265 514.50390525 402.40279052 514.50433198 C384.79700539 514.51330985 367.19122001 514.52162052 349.58543424 514.52924348 C340.95206766 514.53298562 332.31870116 514.53687527 323.68533468 514.54084241 C322.82619241 514.54123469 321.96705014 514.54162697 321.08187325 514.54203113 C293.21429242 514.55482441 265.34672979 514.57736522 237.47915999 514.60493915 C208.85128485 514.63321406 180.22341979 514.6516985 151.59553091 514.65779246 C147.55579702 514.65865698 143.51606317 514.65963389 139.47632933 514.66067922 C138.68122007 514.66088149 137.88611081 514.66108376 137.06690733 514.66129216 C124.24694601 514.6648429 111.42701577 514.67877209 98.60706714 514.69654359 C85.73134428 514.71417233 72.85565236 514.72095973 59.97991785 514.71655162 C52.32201147 514.71426287 44.664218 514.72041538 37.00633192 514.73844012 C31.30043225 514.75095767 25.59462743 514.74796241 19.88872538 514.73874418 C17.57105303 514.73746833 15.25337138 514.74134511 12.93571755 514.75069704 C9.8023446 514.76261256 6.66953816 514.75632359 3.53617525 514.74519098 C2.62155766 514.75307202 1.70694008 514.76095306 0.7646068 514.76907292 C-0.48182835 514.7589601 -0.48182835 514.7589601 -1.75344402 514.74864298 C-2.82900841 514.74934489 -2.82900841 514.74934489 -3.92630138 514.75006099 C-6.42312601 514.25508648 -7.30344956 513.40099339 -8.81295633 511.37604749 C-9.10720682 508.5384113 -9.21520821 505.92038488 -9.19047976 503.08165967 C-9.19484008 502.2214031 -9.1992004 501.36114652 -9.20369285 500.47482157 C-9.21471925 497.56633334 -9.20419285 494.65831226 -9.19390726 491.74982679 C-9.19736091 489.65397463 -9.20212349 487.55812428 -9.20808899 485.46227777 C-9.22066893 479.68279918 -9.21439694 473.90346827 -9.20513034 468.12398899 C-9.1983687 461.89896689 -9.20880669 455.67397096 -9.2170701 449.44895399 C-9.22966693 437.95222312 -9.22853611 426.45555845 -9.2203357 414.95882788 C-9.21279778 404.33913746 -9.21081483 393.7194644 -9.21440363 383.09977186 C-9.21463278 382.39614929 -9.21486194 381.69252672 -9.21509804 380.96758225 C-9.21603201 378.11156067 -9.2169872 375.2555391 -9.21797733 372.39951755 C-9.22716042 345.59170577 -9.2188243 318.78392418 -9.20268664 291.97611706 C-9.18844915 268.14359072 -9.189723 244.31111247 -9.20406961 220.47858655 C-9.22012325 193.72073126 -9.22650924 166.96290264 -9.21723282 140.2050432 C-9.21627063 137.35413651 -9.21533211 134.50322982 -9.21440363 131.65232313 C-9.2141664 130.95032445 -9.21392917 130.24832578 -9.21368474 129.52505442 C-9.21026808 118.91038587 -9.21427104 108.29573657 -9.22184229 97.68107069 C-9.23040553 85.61527602 -9.22801681 73.54955058 -9.21200006 61.48375809 C-9.204092 55.32247206 -9.20106873 49.16128385 -9.21094751 42.99999845 C-9.21984263 37.36720507 -9.2150477 31.73460082 -9.19901486 26.10182476 C-9.19564495 24.05678901 -9.19741018 22.0117375 -9.20464222 19.96671176 C-9.21367753 17.20105448 -9.20449767 14.43605726 -9.19047976 11.67043531 C-9.19750325 10.86416641 -9.20452675 10.05789751 -9.21176308 9.22719622 C-9.15707207 3.88120549 -9.15707207 3.88120549 -7.65276314 1.67289706 C-5.04951745 -0.16208803 -3.17162364 0.00060921 0 0 Z " fill="#ECFBFE" transform="translate(348.8129563331604,222.62395250797272)"/>
<path d="M0 0 C1.4970287 -0.00640714 2.99404679 -0.01588129 4.49103928 -0.02810696 C8.58276623 -0.05273052 12.67329873 -0.03415445 16.76497439 -0.00816075 C21.2245617 0.01238737 25.68400021 -0.00789052 30.14358401 -0.02286655 C37.95219523 -0.04349404 45.76045232 -0.0382072 53.56905365 -0.01576328 C65.18053308 0.017519 76.79174867 0.01062835 88.40325389 -0.00422248 C109.14150426 -0.02945694 129.87958493 -0.01514048 150.61781958 0.01545452 C168.76368983 0.04203324 186.90950344 0.05433639 205.05539322 0.05261326 C206.25910132 0.05251394 207.46280941 0.05241462 208.70299351 0.05231228 C213.58920686 0.05187822 218.47542019 0.05136298 223.36163352 0.05073508 C269.1924913 0.04495857 315.02324843 0.07756069 360.85407388 0.12912097 C401.57896756 0.17474937 442.30377957 0.19302429 483.02869797 0.18622875 C485.64420705 0.1858015 488.25971613 0.18537468 490.87522522 0.1849483 C492.1682797 0.18473661 493.46133418 0.18452491 494.79357213 0.1843068 C501.30253644 0.18325168 507.81150076 0.18224672 514.32046509 0.1812973 C515.60456503 0.18110679 516.88866497 0.18091629 518.21167702 0.18072001 C552.23711667 0.17600099 586.26254709 0.19054879 620.28797984 0.21146172 C621.4981487 0.21220214 622.70831756 0.21294255 623.9551582 0.2137054 C625.76710916 0.21481514 625.76710916 0.21481514 627.61566518 0.2159473 C629.42431224 0.21705458 629.42431224 0.21705458 631.26949762 0.21818422 C633.69779888 0.21967929 636.12610013 0.22119109 638.55440137 0.22271976 C655.49015534 0.23326384 672.42589811 0.23685737 689.36165509 0.23583724 C711.18248374 0.23458939 733.00323805 0.24662721 754.82404044 0.28191016 C766.3664388 0.30020324 777.90872095 0.30760346 789.45113151 0.29927543 C797.15726047 0.2948349 804.86328151 0.3049163 812.56938014 0.32691163 C816.96237281 0.33905377 821.35512504 0.34489639 825.74812451 0.33322386 C829.7458762 0.32274153 833.74315436 0.3306985 837.74085227 0.35325886 C839.17670895 0.35815953 840.61260809 0.3564043 842.04844302 0.3471031 C855.57429305 0.2663217 864.93168119 3.34724286 874.71815109 12.87250805 C881.14221715 20.66437765 883.17785295 29.69910558 883.08729458 39.58510971 C883.09075611 40.52578821 883.09421764 41.46646671 883.09778407 42.43565062 C883.1057124 45.581559 883.09227635 48.72700492 883.07891464 51.87288952 C883.08022319 54.15342311 883.08285051 56.43395627 883.08668214 58.71448702 C883.09338934 64.97647787 883.08139102 71.23831475 883.06634796 77.50028598 C883.05472582 83.5609812 883.05722976 89.62165989 883.05939348 95.68236176 C883.06333147 108.07727253 883.05332507 120.47213526 883.03534126 132.86703205 C883.01758354 145.13758679 883.00604208 157.40812151 883.00278282 169.678689 C883.0025766 170.44194742 883.00237038 171.20520584 883.00215792 171.9915933 C883.0011429 175.8678774 883.00023876 179.74416152 882.99937729 183.62044566 C882.99307789 211.06833098 882.97287094 238.51619018 882.94446945 265.96406078 C882.91691154 292.62747083 882.89566296 319.29087372 882.88294601 345.95429516 C882.88255144 346.77633623 882.88215686 347.5983773 882.88175032 348.44532871 C882.87779472 356.70068544 882.87396729 364.95604222 882.87023374 373.21139905 C882.86262533 390.02815887 882.85416157 406.84491822 882.84518051 423.66167736 C882.84476864 424.43486615 882.84435677 425.20805493 882.84393242 426.00467368 C882.81633553 477.62729619 882.76873808 529.24990354 882.71815109 580.87250805 C881.61952586 580.86936564 880.52090063 580.86622324 879.38898373 580.86298561 C852.54126356 580.7882728 825.69387953 580.76599987 798.84606838 580.79734993 C785.86211359 580.8113223 772.87856763 580.80883288 759.89466476 580.76630688 C748.5655258 580.72924388 737.23688562 580.7243745 725.90772468 580.75667864 C719.92000364 580.77266719 713.93321687 580.7735454 707.94557381 580.73574162 C674.80260593 580.14915933 674.80260593 580.14915933 643.22237778 588.94234753 C636.01973232 591.91058121 627.68136908 592.46723161 620.398736 589.53683853 C616.96940379 587.73167401 613.8205914 585.81099034 610.86604719 583.29585422 C608.34724267 581.62671819 607.04093147 581.49637698 604.04712605 581.49350053 C602.6339104 581.48123759 602.6339104 581.48123759 601.19214493 581.4687269 C600.1582241 581.4750036 599.12430328 581.48128029 598.05905151 581.48774719 C596.95530487 581.48259729 595.85155822 581.47744738 594.71436471 581.47214141 C590.98368371 581.45843157 587.25334979 581.4662328 583.52265549 581.47378063 C580.83394621 581.46834601 578.14526387 581.46172319 575.45656371 581.45363873 C569.5943358 581.43841821 563.7321816 581.43435367 557.86993599 581.43751621 C549.15296291 581.44216865 540.43607359 581.42970694 531.719117 581.41368648 C517.056974 581.38722697 502.39484991 581.37472443 487.73268509 581.37012196 C473.2111627 581.36551822 458.68966658 581.35474444 444.16815567 581.33569431 C443.26591888 581.33451419 442.36368208 581.33333406 441.43410478 581.33211817 C436.85227125 581.32609291 432.27043788 581.31995708 427.68860456 581.31377866 C395.21880541 581.27019349 362.74900688 581.24049658 330.27918625 581.2189436 C298.73132509 581.19797087 267.18347957 581.17072199 235.63563156 581.13495922 C234.66352727 581.13385974 233.69142297 581.13276027 232.68986097 581.13162747 C222.92776597 581.12057932 213.16567111 581.1094034 203.40357636 581.09813385 C183.51630896 581.07517851 163.62904063 581.05307613 143.7417717 581.03148937 C142.82734757 581.03049575 141.91292344 581.02950213 140.97078949 581.02847841 C79.88658949 580.96220172 18.80237117 580.91580966 -42.28184891 580.87250805 C-42.36745071 528.41592276 -42.44705251 475.959332 -42.49356461 423.50269604 C-42.49425489 422.7261776 -42.49494518 421.94965916 -42.49565638 421.14960986 C-42.51062132 404.27330037 -42.52447218 387.39699014 -42.53717555 370.5206788 C-42.54341217 362.24440037 -42.54989495 353.96812213 -42.55650711 345.69184399 C-42.55716091 344.86825993 -42.5578147 344.04467587 -42.55848831 343.19613472 C-42.57979062 316.50698492 -42.61734386 289.81788809 -42.66333501 263.12877038 C-42.71051558 235.69957062 -42.74128021 208.27040017 -42.75142386 180.84116051 C-42.75286461 176.96594118 -42.75449279 173.09072195 -42.75623512 169.21550274 C-42.75657224 168.45281275 -42.75690935 167.69012276 -42.75725668 166.90432095 C-42.7631626 154.632851 -42.78634565 142.36147173 -42.81600908 130.09003874 C-42.84546988 117.74960714 -42.85668267 105.40926535 -42.84935579 93.06879982 C-42.84589038 86.38382404 -42.85109561 79.69914627 -42.87787628 73.01420116 C-42.90222252 66.8922329 -42.9034269 60.77070921 -42.88634338 54.64872041 C-42.88423223 52.43586118 -42.89056269 50.22297412 -42.90626482 48.0101696 C-42.99848901 34.20935403 -42.64885748 23.38178206 -33.84434891 12.06000805 C-24.15343958 2.32430471 -13.30331918 -0.17502305 0 0 Z M-6.12165571 36.16935762 C-8.15581096 39.1554744 -7.68977552 42.67673432 -7.65937233 46.16689587 C-7.66373265 47.02715244 -7.66809297 47.88740902 -7.67258543 48.77373397 C-7.68361183 51.6822222 -7.67308542 54.59024328 -7.66279984 57.49872875 C-7.66625348 59.59458091 -7.67101606 61.69043126 -7.67698157 63.78627777 C-7.6895615 69.56575636 -7.68328952 75.34508727 -7.67402291 81.12456656 C-7.66726127 87.34958866 -7.67769927 93.57458458 -7.68596268 99.79960155 C-7.69855951 111.29633242 -7.69742868 122.79299709 -7.68922827 134.28972766 C-7.68169036 144.90941808 -7.67970741 155.52909114 -7.6832962 166.14878368 C-7.68352536 166.85240625 -7.68375451 167.55602883 -7.68399061 168.28097329 C-7.68492458 171.13699487 -7.68587978 173.99301644 -7.6868699 176.84903799 C-7.696053 203.65684977 -7.68771688 230.46463136 -7.67157921 257.27243848 C-7.65734172 281.10496482 -7.65861558 304.93744307 -7.67296219 328.76996899 C-7.68901582 355.52782428 -7.69540181 382.2856529 -7.6861254 409.04351234 C-7.6851632 411.89441903 -7.68422468 414.74532572 -7.6832962 417.59623241 C-7.68305897 418.29823109 -7.68282174 419.00022976 -7.68257732 419.72350112 C-7.67916065 430.33816967 -7.68316362 440.95281897 -7.69073486 451.56748486 C-7.69929811 463.63327952 -7.69690939 475.69900496 -7.68089263 487.76479745 C-7.67298457 493.92608348 -7.66996131 500.08727169 -7.67984009 506.24855709 C-7.6887352 511.88135047 -7.68394027 517.51395472 -7.66790743 523.14673078 C-7.66453752 525.19176653 -7.66630275 527.23681804 -7.6735348 529.28184378 C-7.68257011 532.04750107 -7.67339024 534.81249828 -7.65937233 537.57812023 C-7.66639583 538.38438913 -7.67341933 539.19065803 -7.68065566 540.02135932 C-7.72331752 544.05515713 -7.72331752 544.05515713 -6.01206546 547.57587423 C-3.89995438 549.15870191 -2.84129345 549.24681267 -0.22233659 549.24510354 C1.02409857 549.25521636 1.02409857 549.25521636 2.29571423 549.26553348 C3.21033182 549.25765244 4.1249494 549.2497714 5.06728268 549.24165154 C6.52869728 549.24684383 6.52869728 549.24684383 8.01963541 549.25214103 C11.31595405 549.26014285 14.61184157 549.24657244 17.90813828 549.2332716 C20.2824887 549.23457864 22.65683871 549.23720319 25.0311864 549.2410391 C30.2097035 549.24636593 35.38812753 549.24231337 40.56662941 549.23012447 C48.26690903 549.21205017 55.9671233 549.21111418 63.66742027 549.21375044 C76.61929888 549.21769619 89.57113164 549.20765259 102.5229969 549.18969822 C115.35114582 549.17196084 128.17927566 549.16040315 141.00743675 549.15713978 C141.80437993 549.15693356 142.60132311 549.15672734 143.42241608 549.15651487 C147.46951502 549.1554999 151.51661396 549.15459574 155.56371293 549.15373424 C184.24614608 549.14742923 212.92855427 549.12720661 241.61097336 549.09882641 C269.47946159 549.07128334 297.347943 549.05002749 325.21644211 549.03730297 C326.50447346 549.0367111 326.50447346 549.0367111 327.81852566 549.03610728 C336.4416417 549.0321518 345.0647578 549.02832434 353.68787395 549.0245907 C371.25491758 549.0169816 388.82196077 549.00851784 406.38900375 548.99953747 C407.60062015 548.99891966 407.60062015 548.99891966 408.83671364 548.99828938 C462.79720327 548.97067687 516.75767869 548.92307775 570.71815109 548.87250805 C567.23857042 545.3280153 563.75979621 542.32705258 559.71815109 539.43500805 C548.88819541 531.34917398 548.88819541 531.34917398 547.65565109 524.37250805 C547.37760738 519.7847868 548.65166681 517.3533821 551.71815109 513.87250805 C555.72606786 510.28784111 558.96465531 510.1443988 564.21033859 510.24750805 C571.08270584 511.47198328 576.82658785 515.27707331 582.71815109 518.87250805 C583.68881516 519.45387524 584.65947922 520.03524242 585.65955734 520.6342268 C586.33889328 521.04285961 587.01822922 521.45149242 587.71815109 521.87250805 C585.7894511 515.2342887 583.665135 508.70258507 581.31971359 502.20063305 C581.00287613 501.31575207 580.68603867 500.43087109 580.35960007 499.51917553 C579.35652407 496.71941621 578.34992721 493.92093867 577.34315109 491.12250805 C576.67624612 489.26321851 576.00957775 487.40384409 575.34315109 485.54438305 C574.10194176 482.08194007 572.85924317 478.62003913 571.61512375 475.15864086 C570.10506161 470.95487501 568.60160677 466.74877174 567.0995903 462.54212475 C566.86967235 461.89823992 566.63975439 461.25435509 566.40286922 460.5909586 C565.84125951 459.01815496 565.27970011 457.44533336 564.71815109 455.87250805 C564.01657096 455.87229068 563.31499083 455.87207331 562.59215069 455.87184936 C521.01470789 455.85833475 479.43736035 455.81885974 437.85997772 455.74565243 C432.8682038 455.73688563 427.87642953 455.72833583 422.884655 455.71992016 C421.89087876 455.7182411 420.89710253 455.71656203 419.87321186 455.71483209 C403.78019351 455.68815921 387.68721078 455.6790668 371.5941726 455.67646662 C355.08234293 455.67340763 338.57061627 455.65146718 322.05883312 455.61198348 C311.86939519 455.58821362 301.68016287 455.57918745 291.49070102 455.58899494 C284.50426229 455.59430894 277.51800789 455.58128958 270.53162163 455.55384514 C266.50021664 455.53855035 262.46922415 455.53134716 258.43780708 455.54591084 C254.74488164 455.55907313 251.05275518 455.54914792 247.35991967 455.52107032 C245.39543496 455.51207986 243.43088495 455.52760923 241.46644878 455.54408771 C234.33069713 455.46253753 229.13315488 454.78745469 223.71815109 449.87250805 C219.13117668 444.10938636 218.59665426 439.97844817 218.54114914 432.75239086 C218.53457794 432.04289288 218.52800674 431.33339489 218.52123642 430.60239697 C218.50156662 428.26014113 218.48985451 425.91794924 218.47986984 423.57563305 C218.47579432 422.77287693 218.47171879 421.97012081 218.46751976 421.14303875 C218.44668517 416.89335929 218.43237262 412.64371186 218.42298508 408.39399242 C218.41193066 404.01827037 218.37753479 399.64305822 218.33781338 395.26751614 C218.31159312 391.89074834 218.30328844 388.51410104 218.2997036 385.13724041 C218.294851 383.52498719 218.28327502 381.91273887 218.2646656 380.30058575 C218.09486272 364.61453492 218.09486272 364.61453492 222.71815109 357.87250805 C224.75330734 356.0326643 224.75330734 356.0326643 226.78065109 354.93500805 C227.45225266 354.55473461 228.12385422 354.17446117 228.81580734 353.7826643 C232.6342953 351.95574912 235.64167285 351.74575813 239.82775784 351.74108028 C241.11417036 351.73723914 242.40058288 351.73339799 243.7259776 351.72944045 C245.16190133 351.73022075 246.59782501 351.73109954 248.03374863 351.73206615 C249.55268835 351.72948332 251.0716274 351.72647038 252.5905655 351.72306275 C256.77552668 351.71497981 260.96047073 351.71320246 265.14543879 351.71246529 C269.65478834 351.71061696 274.16412896 351.7030707 278.67347336 351.69633007 C288.53921948 351.68273664 298.40496155 351.67672035 308.27071548 351.67231941 C314.42928958 351.66955847 320.58786212 351.66532137 326.74643517 351.66081524 C343.7925974 351.64862083 360.83875838 351.63832213 377.88492489 351.63494015 C378.97635558 351.63472058 380.06778627 351.63450102 381.19229062 351.6342748 C382.28635846 351.63405652 383.38042629 351.63383824 384.50764769 351.63361335 C386.72470677 351.63316988 388.94176585 351.63272332 391.15882492 351.63227367 C392.80843771 351.63194153 392.80843771 351.63194153 394.49137602 351.63160267 C412.31077985 351.62765475 430.13014278 351.61020167 447.9495308 351.58691415 C466.23778673 351.56320654 484.52602214 351.55073855 502.81429368 351.54957223 C513.08512206 351.54865509 523.35589717 351.5428931 533.62671089 351.52475262 C542.37293772 351.50935955 551.11909483 351.50422645 559.86533263 351.51249072 C564.32805932 351.51640015 568.79064557 351.51545338 573.25335503 351.50143337 C577.34008676 351.48871194 581.42657225 351.48987646 585.51330356 351.50202408 C586.99046857 351.50398415 588.46765093 351.50088836 589.94479158 351.49217972 C598.96726812 351.44236157 605.80233613 351.70453841 613.53065109 356.68500805 C617.58684814 360.7412051 619.05094626 364.78122267 619.12473679 370.50236034 C619.11866409 371.20072002 619.1125914 371.8990797 619.10633469 372.6186018 C619.11159164 373.37061871 619.1168486 374.12263561 619.12226486 374.89744091 C619.13540433 377.36851165 619.12674861 379.83893144 619.11658859 382.31000805 C619.11861108 384.03583938 619.12152397 385.76166987 619.1252861 387.48749828 C619.12970125 391.09866531 619.12330457 394.70960921 619.10926437 398.32075024 C619.0921729 402.9409413 619.10201844 407.56060947 619.11998177 412.18078136 C619.13084154 415.74278711 619.12736322 419.30466966 619.11959839 422.86667919 C619.11760244 424.56986586 619.12003432 426.27306385 619.12703705 427.9762373 C619.13468781 430.35992945 619.1229974 432.74278423 619.10633469 435.1264143 C619.11240738 435.82477398 619.11848007 436.52313366 619.12473679 437.24265575 C619.06545444 441.83894289 618.1152905 444.96116591 615.71815109 448.87250805 C611.47218287 452.79186334 607.73262646 454.98887787 601.96815109 455.49750805 C600.76932297 455.60965649 600.76932297 455.60965649 599.54627609 455.72407055 C598.94299484 455.77305492 598.33971359 455.8220393 597.71815109 455.87250805 C598.02864835 457.31044197 598.34162869 458.74783985 598.65565109 460.18500805 C598.82967453 460.98551586 599.00369797 461.78602367 599.18299484 462.6107893 C599.71701269 465.01790905 599.71701269 465.01790905 600.71815109 467.87250805 C602.85863685 467.41383253 604.60642105 466.93538643 606.52283859 465.85688305 C610.69861898 463.98446907 615.24598396 464.3175205 619.71815109 464.87250805 C622.18140294 465.95164695 623.66061649 467.09301866 625.71815109 468.87250805 C626.19123703 468.51157055 626.66432297 468.15063305 627.15174484 467.77875805 C631.7071583 464.58197667 635.07492493 463.17759464 640.67518234 463.50532055 C643.51719142 464.01612141 645.43895925 465.12959664 647.71815109 466.87250805 C648.70815109 467.53250805 649.69815109 468.19250805 650.71815109 468.87250805 C651.52252609 468.23313305 652.32690109 467.59375805 653.15565109 466.93500805 C657.10497042 464.3208014 661.02068892 463.66167043 665.71815109 463.87250805 C670.55141171 465.51399279 672.83675522 467.73927106 675.71815109 471.87250805 C677.07236556 474.78642185 678.14572335 477.78137798 679.21424484 480.81000805 C679.52966736 481.68536205 679.84508987 482.56071606 680.17007065 483.46259594 C680.8362364 485.32014838 681.49741826 487.17949472 682.15394211 489.0404768 C683.13466155 491.81316643 684.13696962 494.57729578 685.14197922 497.34125805 C688.39906849 506.41571544 691.31195093 515.49408108 693.56580734 524.87250805 C693.85481163 526.07121532 693.85481163 526.07121532 694.14965439 527.29413891 C695.27619126 532.23341221 696.07861815 537.17958732 696.78210068 542.1967268 C696.95849296 543.44929272 697.13488523 544.70185863 697.31662273 545.9923811 C697.51537927 547.41804394 697.51537927 547.41804394 697.71815109 548.87250805 C716.83273369 548.94253552 735.94729033 548.99546546 755.06197453 549.02794456 C763.93691224 549.04342485 772.81177034 549.06453649 781.68665695 549.09882641 C789.42045223 549.12869329 797.15418985 549.1480746 804.8880412 549.15477353 C808.9844868 549.15869041 813.08076744 549.16791955 817.17716026 549.18969822 C821.03077374 549.21002066 824.88415389 549.21635052 828.73781586 549.21183109 C830.15400649 549.21265821 831.57020472 549.21864923 832.98634911 549.23012447 C834.91640872 549.24500034 836.84659278 549.23968555 838.77669907 549.2332716 C840.39859382 549.23741967 840.39859382 549.23741967 842.05325413 549.24165154 C844.65354419 549.06238991 844.65354419 549.06238991 846.36111194 547.86783582 C848.52086187 544.69223915 848.12799087 541.28790572 848.09567451 537.57812023 C848.10003484 536.71786366 848.10439516 535.85760708 848.10888761 534.97128212 C848.11991401 532.0627939 848.10938761 529.15477282 848.09910202 526.24628735 C848.10255566 524.15043519 848.10731824 522.05458484 848.11328375 519.95873833 C848.12586369 514.17925974 848.1195917 508.39992882 848.1103251 502.62044954 C848.10356346 496.39542744 848.11400145 490.17043152 848.12226486 483.94541454 C848.13486169 472.44868368 848.13373087 460.952019 848.12553046 449.45528844 C848.11799254 438.83559802 848.11600959 428.21592496 848.11959839 417.59623241 C848.11982754 416.89260984 848.1200567 416.18898727 848.1202928 415.46404281 C848.12122677 412.60802123 848.12218196 409.75199966 848.12317209 406.8959781 C848.13235518 380.08816633 848.12401906 353.28038473 848.1078814 326.47257762 C848.09364391 302.64005128 848.09491776 278.80757303 848.10926437 254.97504711 C848.12531801 228.21719182 848.131704 201.4593632 848.12242758 174.70150375 C848.12146539 171.85059707 848.12052687 168.99969038 848.11959839 166.14878368 C848.11936116 165.44678501 848.11912392 164.74478634 848.1188795 164.02151497 C848.11546284 153.40684643 848.1194658 142.79219713 848.12703705 132.17753124 C848.13560029 120.11173657 848.13321157 108.04601114 848.11719482 95.98021865 C848.10928676 89.81893262 848.10626349 83.65774441 848.11614227 77.49645901 C848.12503739 71.86366563 848.12024246 66.23106137 848.10420962 60.59828532 C848.10083971 58.55324957 848.10260494 56.50819806 848.10983698 54.46317232 C848.11887229 51.69751503 848.10969243 48.93251782 848.09567451 46.16689587 C848.10269801 45.36062697 848.10972151 44.55435807 848.11695784 43.72365677 C848.14282669 39.72782795 848.14282669 39.72782795 846.5579579 36.16935762 C843.95471221 34.33437253 842.0768184 34.49706977 838.90519476 34.49646056 C837.68225035 34.48895 836.45930594 34.48143945 835.19930261 34.4737013 C833.83228037 34.48053241 832.46525947 34.48763702 831.0982399 34.49498463 C829.64773961 34.49185743 828.19724166 34.48741533 826.74674898 34.48177153 C822.73328329 34.47001928 818.7200322 34.47711558 814.70656974 34.48710539 C810.35071077 34.49467911 805.99488607 34.48495028 801.63903189 34.47737539 C793.9957293 34.46650963 786.35249021 34.46688776 778.70918465 34.47451687 C767.34362537 34.48583067 755.97811999 34.48008068 744.61256112 34.47089195 C724.31765153 34.45506582 704.02277021 34.45647537 683.7278579 34.46512868 C665.96783927 34.47266434 648.20783103 34.47465061 630.44781113 34.47106075 C629.2714443 34.4708316 628.09507748 34.47060244 626.88306318 34.47036634 C622.10825257 34.46943238 617.33344197 34.46847719 612.55863138 34.46748705 C567.73329128 34.45830239 522.90796922 34.46664258 478.08263191 34.48277774 C438.22561431 34.4970154 398.36862547 34.49574156 358.51160812 34.48139477 C313.77019576 34.46534379 269.02879935 34.45895366 224.28738451 34.46823156 C219.5210867 34.46919376 214.75478888 34.47013228 209.98849106 34.47106075 C208.81483807 34.47129798 207.64118508 34.47153522 206.43196685 34.47177964 C188.67963486 34.4751974 170.92731438 34.4711913 153.17498398 34.46362209 C132.99729798 34.45506185 112.81964477 34.45715124 92.64196289 34.47346433 C81.33811218 34.48230077 70.0343324 34.48280865 58.73048347 34.4715258 C51.19192566 34.46482873 43.65342503 34.46893047 36.11487574 34.48204011 C31.81167215 34.48921706 27.50861008 34.49153315 23.20541066 34.48082216 C19.29724352 34.47119303 15.38934455 34.47515772 11.48119729 34.49036414 C10.06986008 34.49340691 8.65850111 34.49133205 7.24718101 34.48374633 C5.34184222 34.4742252 3.43643407 34.48475924 1.53110743 34.49646056 C-0.05631443 34.49676547 -0.05631443 34.49676547 -1.67580542 34.49707655 C-4.29449708 34.67317787 -4.29449708 34.67317787 -6.12165571 36.16935762 Z " fill="#3C4B59" transform="translate(347.2818489074707,188.12749195098877)"/>
<path d="M0 0 C0.77496866 2.74935994 1.12360686 5.18294961 1.11778647 8.03623414 C1.11860034 8.83646961 1.11941422 9.63670508 1.12025276 10.4611901 C1.1160214 11.33628073 1.11179004 12.21137136 1.10743046 13.11297989 C1.10689593 14.04957754 1.1063614 14.98617519 1.10581067 15.95115459 C1.10276439 19.11315382 1.09248816 22.27508907 1.08229065 25.43707275 C1.07859853 27.71741412 1.07534883 29.99775624 1.07250541 32.27809882 C1.06338021 38.56274483 1.04794741 44.84736223 1.03152263 51.13199282 C1.01662403 57.20755525 1.00644739 63.28312388 0.99616829 69.35869557 C0.97497302 81.78949652 0.94908363 94.22028358 0.92053413 106.65106964 C0.89227512 118.96203476 0.86609315 131.27300139 0.84269524 143.58397675 C0.84124015 144.34896521 0.83978506 145.11395367 0.83828588 145.90212361 C0.8309073 149.78699251 0.82356592 153.67186148 0.81623887 157.55673048 C0.76425221 185.08502967 0.70759336 212.61331746 0.64819336 240.14160156 C0.59049184 266.88769087 0.53490259 293.63378321 0.48217773 320.37988281 C0.47973936 321.61617195 0.47973936 321.61617195 0.47725173 322.87743663 C0.46092955 331.15419483 0.44465036 339.43095311 0.42840267 347.70771146 C0.39530223 364.56895576 0.3619148 381.43019948 0.32835388 398.29144287 C0.3268111 399.0667236 0.32526832 399.84200432 0.32367879 400.6407784 C0.22059291 452.42719555 0.11079572 504.21359884 0 556 C0.56374533 555.99906412 1.12749066 555.99812823 1.70831918 555.99716399 C63.07615755 555.89549901 124.44400524 555.80126467 185.81190491 555.74594116 C187.18664985 555.74469865 187.18664985 555.74469865 188.58916741 555.74343103 C208.50646722 555.72547415 228.42376793 555.70885297 248.34106999 555.69360802 C258.10832095 555.68612392 267.87557166 555.67834461 277.64282227 555.67041016 C278.61478803 555.6696256 279.58675379 555.66884105 280.58817306 555.66803272 C312.09997751 555.64245853 343.61171746 555.59738614 375.12348283 555.54221668 C407.5023064 555.48563208 439.88109426 555.44868989 472.25996644 555.43651006 C476.83185051 555.4347811 481.40373445 555.43282728 485.97561836 555.43073654 C486.87544252 555.430332 487.77526667 555.42992747 488.70235823 555.42951067 C503.1948714 555.42241667 517.68727427 555.39457841 532.17974244 555.3590078 C546.74485825 555.32370066 561.30986457 555.310188 575.87502169 555.31899174 C584.53158279 555.32355985 593.18774355 555.31134812 601.84423246 555.27521474 C607.62591674 555.25272725 613.40733865 555.25200933 619.18904099 555.26900912 C622.48416784 555.27807396 625.7783838 555.27434572 629.07346033 555.25070091 C632.62486177 555.22669319 636.17429135 555.23955348 639.72566128 555.26171303 C640.74644704 555.24595095 641.7672328 555.23018886 642.81895146 555.21394914 C650.21861462 555.31860338 654.20229919 557.58667326 660 562 C666.60246057 565.86868837 672.50274678 565.77882934 680 565 C684.31368062 563.8614661 688.36219997 562.22764417 692.49665833 560.56385803 C706.78130287 555.36637746 719.9093154 554.74470714 734.98941076 554.95540941 C738.57790506 554.9951566 742.16630589 554.98106288 745.75495911 554.97428894 C751.93777347 554.96962379 758.11971741 554.99728269 764.30231285 555.04842949 C773.24057944 555.12232405 782.17843548 555.1450879 791.11697433 555.15632141 C805.62729228 555.17590325 820.13714869 555.23547832 834.6472168 555.32104492 C848.72238902 555.40395937 862.79743481 555.46751545 876.87280273 555.50561523 C877.7438859 555.50797975 878.61496907 555.51034426 879.51244869 555.51278042 C883.88345773 555.52452779 888.25446764 555.53590067 892.62547815 555.54708755 C928.75064423 555.64002632 964.87528582 555.79822329 1001 556 C1001.05256109 558.55495868 1001.09086328 561.10882186 1001.12109375 563.6640625 C1001.13732788 564.38215088 1001.15356201 565.10023926 1001.17028809 565.84008789 C1001.25963042 575.92136214 996.29342233 582.51953222 989.5234375 589.671875 C979.25038661 599.14979812 967.68187602 603.12058473 953.86415046 603.12880117 C952.81447085 603.13146368 952.81447085 603.13146368 951.74358558 603.13417998 C949.3944618 603.13891774 947.04539948 603.13654751 944.69627285 603.13422108 C942.98949088 603.13617435 941.28270936 603.13856333 939.57592854 603.14134905 C934.86486539 603.14775522 930.15381928 603.14791018 925.44275261 603.14707164 C920.3252592 603.14724101 915.20777191 603.15314576 910.09028155 603.1583125 C899.93097058 603.16764538 889.77166398 603.1715617 879.61234927 603.17383147 C867.44740883 603.17679171 855.28247419 603.18548803 843.11753679 603.19424575 C813.7135643 603.21509754 784.30959147 603.22556421 754.90561363 603.23437535 C745.16842658 603.23730945 735.43123974 603.24067935 725.69405293 603.24434257 C725.00709284 603.24460086 724.32013274 603.24485915 723.61235568 603.24512527 C720.83312894 603.2461715 718.05390221 603.24721992 715.27467548 603.24827109 C667.73582003 603.26623539 620.19696422 603.28161445 572.65810586 603.28903012 C568.92419191 603.28961409 565.19027796 603.29021136 561.45636401 603.29080774 C560.71567556 603.29092586 559.97498711 603.29104398 559.21185356 603.29116567 C551.70766266 603.29236306 544.20347176 603.29357182 536.69928086 603.29479821 C535.19467094 603.29504344 533.69006102 603.2952873 532.1854511 603.29552978 C483.86193087 603.30331965 435.53843493 603.32570367 387.21492531 603.3582062 C352.49258393 603.38155269 317.77024738 603.40310392 283.04789829 603.41021252 C281.97671972 603.41043305 281.97671972 603.41043305 280.88390118 603.41065803 C265.20695267 603.4138429 249.5300042 603.41589376 233.85305539 603.41688558 C227.54523621 603.41730032 221.23741703 603.41785522 214.92959785 603.41844749 C214.23925063 603.41850816 213.54890341 603.41856883 212.83763658 603.41863134 C190.60320961 603.42064705 168.36881133 603.43488338 146.13439438 603.4553925 C123.1145285 603.47655082 100.09469432 603.48332797 77.07481729 603.47351871 C63.8023115 603.46829551 50.52991955 603.47421993 37.25743009 603.49605338 C28.39397335 603.50953391 19.5305952 603.50850877 10.66713772 603.49565142 C5.61543897 603.4887366 0.5639583 603.4881474 -4.48772121 603.50521151 C-9.08673846 603.52062007 -13.68536244 603.51748923 -18.28436809 603.49980123 C-19.93455854 603.49666087 -21.58477912 603.50017053 -23.23493508 603.51129298 C-40.64514715 603.62096339 -52.9804529 599.51218804 -65.875 587.5625 C-75.09752616 577.89658316 -75 569.53417945 -75 556 C-50.58 556 -26.16 556 -1 556 C-1.00222061 549.07863571 -1.00444122 542.15727142 -1.00672913 535.02616882 C-1.02105421 489.33847607 -1.03426864 443.65078333 -1.04234314 397.96308899 C-1.0424812 397.1839183 -1.04261925 396.40474761 -1.04276149 395.60196569 C-1.04575412 378.67011067 -1.04852435 361.73825561 -1.05106533 344.80640052 C-1.05231271 336.50350203 -1.05360926 328.20060355 -1.05493164 319.89770508 C-1.0550624 319.07144935 -1.05519316 318.24519361 -1.05532788 317.39389983 C-1.05959226 290.59336742 -1.06710582 263.79283712 -1.07629722 236.99230599 C-1.08572233 209.46043129 -1.0918837 181.92855775 -1.09391499 154.39668145 C-1.09420316 150.51154814 -1.0945288 146.62641482 -1.09487724 142.74128151 C-1.09497838 141.59426159 -1.09497838 141.59426159 -1.09508156 140.42406955 C-1.0962651 128.09507303 -1.10090809 115.76608009 -1.10683203 103.43708504 C-1.11270848 91.05425914 -1.11497069 78.67143683 -1.11350138 66.28860959 C-1.11280588 59.57447515 -1.11387415 52.86035194 -1.11920547 46.14621925 C-1.124044 40.00820388 -1.12433562 33.87020627 -1.12089889 27.73219011 C-1.12047365 25.50334896 -1.12176557 23.27450674 -1.12488318 21.04566773 C-1.1288555 18.03227277 -1.12675807 15.01894324 -1.12304783 12.00554943 C-1.12567484 11.12622744 -1.12830186 10.24690545 -1.13100848 9.34093735 C-1.1215488 5.97588199 -1.07162889 3.21488667 0 0 Z " fill="#DFE3E7" transform="translate(305,213)"/>
<path d="M0 0 C0.62686707 0.28919312 1.25373413 0.57838623 1.89959717 0.87634277 C3.96500259 1.83250106 6.02125617 2.80688145 8.078125 3.78125 C9.5442866 4.46360625 11.01109743 5.14456904 12.47851562 5.82421875 C15.55164649 7.24925124 18.62161306 8.68080181 21.68945312 10.1171875 C28.32216725 13.21805249 34.98592725 16.25068638 41.64831543 19.28710938 C44.58000812 20.62415957 47.5099778 21.96496344 50.44000244 23.30566406 C60.2408968 27.78980089 70.05215398 32.25097313 79.86608887 36.70648193 C87.63448426 40.23353341 95.39939888 43.76793366 103.15625 47.3203125 C103.89341751 47.65784546 104.63058502 47.99537842 105.39009094 48.34313965 C108.35244243 49.69965583 111.31475851 51.05624697 114.27645874 52.41418457 C122.08989761 55.99604031 129.91204204 59.55474236 137.76953125 63.0390625 C138.44078033 63.33728912 139.11202942 63.63551575 139.80361938 63.94277954 C142.95617073 65.34296376 146.11091894 66.73729619 149.27050781 68.12158203 C161.65476642 73.60789142 161.65476642 73.60789142 165.328125 77.28125 C165.765625 80.03125 165.765625 80.03125 165.328125 83.28125 C160.77333117 87.81779911 155.75697858 90.17217947 149.8984375 92.6796875 C148.99044403 93.0777359 148.08245056 93.4757843 147.14694214 93.88589478 C144.25297281 95.15201991 141.35327323 96.40435268 138.453125 97.65625 C136.5438728 98.48867099 134.63501481 99.32199678 132.7265625 100.15625 C129.01436269 101.77720475 125.29991929 103.39280872 121.58300781 105.00292969 C116.69901179 107.11872326 111.82084278 109.24759276 106.9453125 111.3828125 C106.26735626 111.67964935 105.58940002 111.97648621 104.89089966 112.28231812 C103.36988335 112.94842001 101.84898806 113.61479826 100.328125 114.28125 C100.32447937 114.97536484 100.32083374 115.66947968 100.31707764 116.3846283 C100.27904304 122.96021142 100.22201722 129.53533251 100.14422226 136.11057186 C100.10489141 139.49015542 100.07263344 142.86948407 100.05712891 146.24926758 C100.03562036 150.14446532 99.98892532 154.03868984 99.9375 157.93359375 C99.93627136 159.1339476 99.93504272 160.33430145 99.93377686 161.57102966 C99.76213119 171.49882031 97.39751549 178.9966886 90.55078125 186.30859375 C81.88683845 193.99803332 71.17718265 198.58246588 60.328125 202.28125 C59.6784375 202.50409668 59.02875 202.72694336 58.359375 202.95654297 C24.01107629 214.36963734 -18.32070799 215.42929564 -53.671875 208.28125 C-54.80351074 208.0644458 -54.80351074 208.0644458 -55.95800781 207.84326172 C-76.48489816 203.82597043 -99.88604474 196.88399914 -113.671875 180.28125 C-118.11685993 173.0731051 -118.20488598 166.21222723 -118.0625 157.93359375 C-118.05684021 156.68115372 -118.05118042 155.42871368 -118.04534912 154.13832092 C-118.02685658 150.83859959 -117.99103913 147.5396874 -117.9465332 144.24023438 C-117.90531829 140.86142788 -117.88728271 137.48250204 -117.8671875 134.10351562 C-117.82324605 127.49578204 -117.75642768 120.88858207 -117.671875 114.28125 C-118.2214537 114.10837463 -118.77103241 113.93549927 -119.33726501 113.75738525 C-124.82402252 111.98659514 -130.05639912 109.90315101 -135.30078125 107.515625 C-136.09354965 107.15913879 -136.88631805 106.80265259 -137.70310974 106.43536377 C-140.21539173 105.3047328 -142.72497082 104.1682518 -145.234375 103.03125 C-147.71015309 101.91390855 -150.18649078 100.79782099 -152.66317749 99.68249512 C-154.2907363 98.94888238 -155.91755411 98.21362337 -157.54360962 97.47668457 C-161.44858753 95.71089341 -165.36188137 93.97706882 -169.31201172 92.31445312 C-170.04234116 92.00469543 -170.77267059 91.69493774 -171.52513123 91.37579346 C-172.88675112 90.80097802 -174.2516852 90.23392123 -175.62049866 89.67645264 C-179.36975381 88.088708 -182.14492931 86.51166918 -184.671875 83.28125 C-184.921875 79.84375 -184.921875 79.84375 -183.671875 76.28125 C-178.92456068 72.35831987 -172.972102 69.87624152 -167.37109375 67.41796875 C-166.58995209 67.06912628 -165.80881042 66.72028381 -165.0039978 66.36087036 C-163.32917626 65.61363404 -161.65317772 64.86903106 -159.97610474 64.12686157 C-156.39433941 62.5416448 -152.81845495 60.94336267 -149.24223328 59.34568787 C-147.40373656 58.52439467 -145.56495916 57.70372952 -143.72590637 56.88368225 C-135.03744571 53.00713158 -126.3821042 49.06015347 -117.734375 45.09375 C-114.86993423 43.78093875 -112.00531185 42.4685242 -109.140625 41.15625 C-108.44021088 40.83532379 -107.73979675 40.51439758 -107.01815796 40.18374634 C-99.95972602 36.95145262 -92.88936761 33.74558494 -85.8190918 30.53930664 C-74.93598216 25.60309823 -64.07100982 20.63126349 -53.234375 15.59375 C-52.10821777 15.07184082 -50.98206055 14.54993164 -49.82177734 14.01220703 C-44.60931273 11.59329178 -39.40478704 9.16033989 -34.22261047 6.67726135 C-32.42319276 5.81652892 -30.62067153 4.96229434 -28.81811523 4.1081543 C-26.57538736 3.0451263 -24.33755646 1.97168017 -22.10571289 0.88598633 C-20.59738892 0.17478638 -20.59738892 0.17478638 -19.05859375 -0.55078125 C-18.18420654 -0.97077393 -17.30981934 -1.3907666 -16.40893555 -1.82348633 C-10.27321666 -3.83041534 -5.70123875 -2.67312026 0 0 Z " fill="#3E4D5B" transform="translate(776.671875,285.71875)"/>
<path d="M0 0 C1.28641252 -0.00384115 2.57282504 -0.00768229 3.89821976 -0.01163983 C5.33414349 -0.01085954 6.77006717 -0.00998074 8.20599079 -0.00901413 C9.72493052 -0.01159697 11.24386957 -0.0146099 12.76280767 -0.01801753 C16.94776885 -0.02610047 21.13271289 -0.02787782 25.31768095 -0.028615 C29.82703051 -0.03046333 34.33637112 -0.03800959 38.84571552 -0.04475021 C48.71146165 -0.05834365 58.57720371 -0.06435994 68.44295764 -0.06876087 C74.60153175 -0.07152181 80.76010428 -0.07575891 86.91867733 -0.08026505 C103.96483957 -0.09245945 121.01100055 -0.10275815 138.05716705 -0.10614014 C139.14859775 -0.1063597 140.24002844 -0.10657927 141.36453279 -0.10680549 C143.00563454 -0.10713291 143.00563454 -0.10713291 144.67988986 -0.10746694 C146.89694893 -0.1079104 149.11400801 -0.10835697 151.33106709 -0.10880661 C152.98067988 -0.10913875 152.98067988 -0.10913875 154.66361818 -0.10947761 C172.48302201 -0.11342553 190.30238494 -0.13087862 208.12177297 -0.15416613 C226.4100289 -0.17787374 244.6982643 -0.19034173 262.98653585 -0.19150805 C273.25736423 -0.19242519 283.52813934 -0.19818718 293.79895306 -0.21632767 C302.54517989 -0.23172074 311.29133699 -0.23685383 320.03757479 -0.22858956 C324.50030149 -0.22468014 328.96288773 -0.2256269 333.42559719 -0.23964691 C337.51232892 -0.25236834 341.59881442 -0.25120382 345.68554572 -0.2390562 C347.16271074 -0.23709614 348.63989309 -0.24019193 350.11703374 -0.24890056 C359.19498404 -0.29902501 366.7171048 -0.20790193 374.20289326 5.44392776 C378.50976769 9.7508022 380.21795809 13.63462349 380.29697895 19.76128006 C380.28786991 20.80881958 380.28786991 20.80881958 380.27857685 21.87752151 C380.28646229 23.00554688 380.28646229 23.00554688 380.29450703 24.15636063 C380.30764649 26.62743136 380.29899078 29.09785115 380.28883076 31.56892776 C380.29085324 33.29475909 380.29376613 35.02058959 380.29752827 36.746418 C380.30194341 40.35758502 380.29554673 43.96852893 380.28150654 47.57966995 C380.26441507 52.19986101 380.2742606 56.81952919 380.29222393 61.43970108 C380.3030837 65.00170683 380.29960538 68.56358937 380.29184055 72.12559891 C380.28984461 73.82878558 380.29227649 75.53198357 380.29927921 77.23515701 C380.30692998 79.61884917 380.29523957 82.00170394 380.27857685 84.38533401 C380.28464954 85.0836937 380.29072224 85.78205338 380.29697895 86.50157547 C380.22942347 91.73929688 378.98889789 95.82587068 375.42554951 99.74080276 C370.67267922 103.422071 367.71479237 105.41628037 361.64039326 105.25642776 C360.74836201 105.23838089 359.85633076 105.22033401 358.93726826 105.20174026 C358.26179951 105.17853714 357.58633076 105.15533401 356.89039326 105.13142776 C356.50367451 103.96224808 356.11695576 102.79306839 355.71851826 101.58845901 C355.19301436 100.04009931 354.66694262 98.49193225 354.14039326 96.94392776 C353.88773701 96.17500198 353.63508076 95.4060762 353.37476826 94.61384964 C351.65824516 89.61447612 349.9058863 84.63917429 344.89039326 82.13142776 C339.6346416 81.60757017 335.24513231 81.46637405 330.45289326 83.81892776 C327.83153984 86.18453939 325.81505237 88.16407324 323.89039326 91.13142776 C323.62198267 94.72355626 323.62198267 94.72355626 324.14039326 98.44392776 C324.26929951 99.69818558 324.39820576 100.95244339 324.53101826 102.24470901 C324.64961201 103.1973262 324.76820576 104.14994339 324.89039326 105.13142776 C282.6043709 105.24586132 240.3183664 105.33397064 198.03221989 105.38675441 C193.04044539 105.39300798 188.0486712 105.39947959 183.05689716 105.40608597 C182.06312093 105.40739752 181.06934469 105.40870907 180.04545403 105.41006037 C163.95239353 105.43181947 147.8594223 105.4712438 131.76641476 105.51719175 C115.2546405 105.5639423 98.74291301 105.5917202 82.23107529 105.60187024 C72.04158793 105.6087323 61.85235288 105.63040875 51.66294318 105.6710101 C44.67655533 105.69743115 37.69029799 105.7054302 30.7038638 105.69893465 C26.67241916 105.69573076 22.64141555 105.70065668 18.61004925 105.72745514 C14.91718595 105.75182398 11.22505936 105.75299255 7.53216183 105.73592224 C5.56762666 105.73281613 3.60309989 105.7543489 1.63869095 105.77683431 C-5.58506657 105.71567748 -10.565762 104.9636336 -16.10960674 100.13142776 C-21.37816312 94.72422517 -22.35609379 89.1621437 -22.40013409 81.7842598 C-22.40685131 81.07446976 -22.41356853 80.36467972 -22.42048931 79.63338089 C-22.43938711 77.30192821 -22.44338919 74.97076462 -22.44554424 72.63924026 C-22.45197755 71.00788126 -22.4587063 69.3765234 -22.46571636 67.74516678 C-22.47766832 64.33076173 -22.4813993 60.91645771 -22.48021221 57.50203323 C-22.48000906 53.14202382 -22.50731605 48.7826665 -22.54175663 44.42281151 C-22.56407006 41.05460551 -22.56804841 37.6865554 -22.56699276 34.31828308 C-22.56934184 32.71162417 -22.57812612 31.1049605 -22.59365749 29.49837494 C-22.73058251 13.87299928 -22.73058251 13.87299928 -18.10960674 7.13142776 C-15.85570049 5.07283401 -15.85570049 5.07283401 -13.54710674 3.69392776 C-12.78269268 3.22084183 -12.01827862 2.74775589 -11.23070049 2.26033401 C-7.35804212 0.19919539 -4.32398272 0.00483194 0 0 Z " fill="#E97A4A" transform="translate(587.1096067428589,538.8685722351074)"/>
<path d="M0 0 C12.65211902 0.00237479 25.30423677 0.00257354 37.95635596 0.00148464 C38.87741455 0.00140825 39.79847314 0.00133187 40.7474426 0.00125317 C44.49282286 0.00094148 48.23820311 0.00062304 51.98358337 0.00029341 C86.66807539 -0.00272209 121.35256477 -0.00006411 156.03705639 0.0053903 C186.35222983 0.0101216 216.66739906 0.00971392 246.98257246 0.00492931 C281.59618463 -0.00051638 316.20979448 -0.00249869 350.82340702 0.00054158 C354.56647415 0.00086195 358.30954127 0.00117481 362.0526084 0.00148464 C363.43356087 0.00160326 363.43356087 0.00160326 364.84241138 0.00172427 C377.42347114 0.00275501 390.00452934 0.00191799 402.58558888 -0.00050223 C478.26480313 -0.0148305 553.94170166 0.10083613 629.61983524 0.53366753 C635.14875265 0.56526463 640.67767435 0.59581822 646.20660279 0.62542194 C655.72329596 0.67640414 665.23994532 0.73225747 674.75657855 0.79341612 C677.90067735 0.81350394 681.04477775 0.83183055 684.18889685 0.84843294 C702.82507053 0.94831791 721.42369866 1.30486638 740.04336348 2.13530041 C739.09531047 3.26063133 738.14449865 4.38363841 737.1925334 5.50566173 C736.3987554 6.44409672 736.3987554 6.44409672 735.58894148 7.40148998 C728.28300721 15.59719734 717.68382103 19.63491238 707.04336348 21.13530041 C704.66603551 21.2245838 702.28651748 21.26268695 699.90751394 21.26410157 C698.85783433 21.26676409 698.85783433 21.26676409 697.78694906 21.26948039 C695.43782528 21.27421814 693.08876296 21.27184792 690.73963633 21.26952148 C689.03285435 21.27147476 687.32607283 21.27386373 685.61929202 21.27664945 C680.90822887 21.28305563 676.19718276 21.28321058 671.48611609 21.28237204 C666.36862267 21.28254142 661.25113539 21.28844617 656.13364502 21.2936129 C645.97433406 21.30294579 635.81502746 21.30686211 625.65571275 21.30913187 C613.49077231 21.31209212 601.32583767 21.32078844 589.16090027 21.32954615 C559.75692778 21.35039795 530.35295495 21.36086461 500.94897711 21.36967576 C491.21179005 21.37260985 481.47460322 21.37597976 471.73741641 21.37964297 C471.05045632 21.37990126 470.36349622 21.38015955 469.65571915 21.38042567 C466.87649242 21.3814719 464.09726569 21.38252033 461.31803895 21.38357149 C413.77918351 21.40153579 366.2403277 21.41691486 318.70146934 21.42433052 C314.96755539 21.42491449 311.23364144 21.42551176 307.49972749 21.42610814 C306.75903904 21.42622626 306.01835059 21.42634438 305.25521703 21.42646608 C297.75102613 21.42766346 290.24683523 21.42887223 282.74264434 21.43009861 C281.23803442 21.43034385 279.7334245 21.4305877 278.22881458 21.43083018 C229.90529435 21.43862006 181.58179841 21.46100407 133.25828879 21.49350661 C98.53594741 21.51685309 63.81361086 21.53840433 29.09126177 21.54551292 C28.37714272 21.54565994 27.66302368 21.54580696 26.92726466 21.54595844 C11.25031615 21.5491433 -4.42663233 21.55119417 -20.10358113 21.55218599 C-26.41140032 21.55260072 -32.71921949 21.55315562 -39.02703867 21.5537479 C-39.71738589 21.55380857 -40.40773311 21.55386924 -41.11899995 21.55393174 C-63.35342691 21.55594745 -85.58782519 21.57018378 -107.82224214 21.5906929 C-130.84210803 21.61185123 -153.8619422 21.61862837 -176.88181923 21.60881911 C-190.15432502 21.60359592 -203.42671698 21.60952034 -216.69920643 21.63135378 C-225.56266318 21.64483432 -234.42604132 21.64380918 -243.2894988 21.63095183 C-248.34119755 21.624037 -253.39267822 21.62344781 -258.44435773 21.64051192 C-263.04337499 21.65592048 -267.64199896 21.65278964 -272.24100461 21.63510164 C-273.89119506 21.63196127 -275.54141564 21.63547093 -277.1915716 21.64659338 C-289.09517223 21.72157654 -301.10862236 20.91314393 -310.89413652 13.32280041 C-311.72815996 12.69760509 -312.5621834 12.07240978 -313.42148027 11.42826916 C-315.52664714 9.52421222 -317.28896703 7.64915794 -319.11508379 5.49198986 C-319.64908296 4.86299282 -320.18308214 4.23399578 -320.73326311 3.58593822 C-321.13697634 3.10722774 -321.54068956 2.62851726 -321.95663652 2.13530041 C-290.42548666 0.94200107 -258.8775974 0.81215968 -227.32823827 0.61082635 C-223.42477622 0.58589462 -219.52132176 0.55993612 -215.61786851 0.53366753 C-143.74541761 0.05046487 -71.87381596 -0.01376552 0 0 Z " fill="#BBC3CB" transform="translate(558.9566365219653,794.8646995946765)"/>
<path d="M0 0 C7.92338315 2.06341907 15.68276726 1.95492882 23.7994464 1.91723192 C25.51261839 1.92036573 27.22578838 1.92481275 28.93895397 1.93044502 C33.63985239 1.94210254 38.3405654 1.93515032 43.04146073 1.92511116 C48.15833954 1.91749169 53.27519023 1.92728453 58.39206505 1.93484116 C67.35794307 1.94567341 76.32376689 1.94534923 85.2896474 1.93769968 C98.62235287 1.92635532 111.9550126 1.93215189 125.28771776 1.9413246 C147.71982748 1.95621115 170.15191697 1.95675865 192.58402759 1.94859445 C193.60822899 1.94822187 193.60822899 1.94822187 194.65312134 1.94784177 C195.33701941 1.94759298 196.02091749 1.94734419 196.72553976 1.94708786 C217.56612668 1.93951648 238.40670481 1.93756498 259.24729282 1.94115579 C260.64321068 1.94138823 262.03912855 1.9416197 263.43504641 1.9418502 C269.0447824 1.94278162 274.65451838 1.94373762 280.26425436 1.94472949 C295.94580193 1.94748047 311.62734953 1.94919231 327.30889732 1.9500879 C328.0229915 1.95012884 328.73708568 1.95016978 329.47281908 1.95021196 C352.22577731 1.95143973 374.97873248 1.94805951 397.73168975 1.94153917 C398.46961544 1.94132842 399.20754113 1.94111767 399.96782821 1.94090054 C411.95100979 1.93746576 423.9341913 1.93380734 435.91737281 1.93013002 C483.43551008 1.91556351 530.95362198 1.91623525 578.47175914 1.93082178 C590.4453452 1.93448542 602.41893126 1.93811861 614.39251739 1.94153917 C615.49844091 1.94185619 615.49844091 1.94185619 616.62670632 1.94217961 C639.35339165 1.94864963 662.08007487 1.9513907 684.80676109 1.9500879 C685.52037035 1.95004715 686.2339796 1.9500064 686.96921339 1.94996441 C702.63522622 1.94902691 718.30123884 1.94712586 733.96725145 1.9443564 C739.57289819 1.94336899 745.17854494 1.94242975 750.7841917 1.94150426 C752.17870393 1.9412721 753.57321616 1.94103591 754.96772839 1.94079567 C775.80008371 1.93721678 796.63242912 1.9402606 817.46478321 1.94784177 C818.48861203 1.94821434 818.48861203 1.94821434 819.53312427 1.94859445 C820.21441515 1.9488425 820.89570603 1.94909054 821.59764209 1.94934611 C844.59119541 1.95762613 867.58472666 1.95456057 890.57827804 1.93875222 C903.83259703 1.92994034 917.08685554 1.9293727 930.34117296 1.94069074 C939.19485472 1.94741726 948.04848799 1.9432323 956.90216256 1.93017644 C961.94649849 1.92304074 966.99071428 1.92059872 972.03504644 1.93139438 C976.62963008 1.94112715 981.22398765 1.93690817 985.818555 1.9218524 C987.46490056 1.91884633 989.11126509 1.92078836 990.75759547 1.92847022 C1000.05884048 1.96876908 1008.58944354 1.28835375 1017.66139145 -0.84249081 C1021.82408437 -1.67164086 1024.53904873 -1.36700509 1028.63801891 -0.3352915 C1029.86391734 -0.03751807 1031.08981578 0.26025537 1032.35286266 0.56705225 C1036.55128066 1.76453917 1040.665788 3.03020237 1044.76301891 4.5397085 C1044.76301891 5.1997085 1044.76301891 5.8597085 1044.76301891 6.5397085 C1035.65972049 9.24869609 1026.64051881 10.98253287 1017.20833141 12.047521 C1016.08940501 12.17464975 1014.97047862 12.3017785 1013.81764537 12.43275964 C999.95764695 13.93458163 986.05211688 14.71422648 972.1367982 15.48337305 C969.35304267 15.63913727 966.56977442 15.80274414 963.78648025 15.96651399 C871.81477869 21.36681476 779.60193288 23.20851619 526.15004569 24.7269572 C522.31680534 24.72720502 518.48356537 24.72792233 514.65032512 24.72879159 C457.70748955 24.74071628 400.76742711 24.58789083 343.82654697 24.11441386 C341.31463277 24.09353081 338.80271695 24.07284081 336.29079944 24.0523597 C237.48705894 23.24641598 138.39555631 21.85722921 12.57551891 13.5397085 C11.57449138 13.46189142 10.57346385 13.38407434 9.54210216 13.30389917 C0.04050258 12.55393211 -9.39167273 11.66856964 -18.78776234 10.0397085 C-19.81585263 9.86193872 -19.81585263 9.86193872 -20.86471242 9.68057764 C-24.52266434 8.99972208 -27.83748768 8.05403941 -31.23698109 6.5397085 C-31.23698109 5.8797085 -31.23698109 5.2197085 -31.23698109 4.5397085 C-25.68877072 2.31791384 -20.36716907 0.71327348 -14.48698109 -0.3352915 C-13.76510609 -0.489979 -13.04323109 -0.6446665 -12.29948109 -0.8040415 C-7.7409881 -1.61691963 -4.42951734 -1.36226856 0 0 Z " fill="#90C8DE" transform="translate(260.2369810938835,813.4602915048599)"/>
<path d="M0 0 C3.33913258 2.76072729 4.72857372 5.21434364 6.04296875 9.3034668 C6.39012939 10.36103683 6.73729004 11.41860687 7.0949707 12.50822449 C7.45550537 13.64375259 7.81604004 14.7792807 8.1875 15.94921875 C8.97637601 18.34706657 9.76544426 20.74485115 10.5546875 23.14257812 C11.7841391 26.92681437 13.00817104 30.71275063 14.22753906 34.50024414 C15.40877929 38.1545581 16.60962743 41.80197916 17.8125 45.44921875 C18.17303467 46.59081955 18.53356934 47.73242035 18.9050293 48.90861511 C19.25218994 49.95672867 19.59935059 51.00484222 19.95703125 52.0847168 C20.25585205 53.01197067 20.55467285 53.93922455 20.86254883 54.89457703 C21.80994485 57.17379225 21.80994485 57.17379225 24.06518555 57.8697052 C25.0229187 57.93420113 25.0229187 57.93420113 26 58 C26.33 57.67 26.66 57.34 27 57 C26.65621199 53.49336227 26.13793632 50.38135337 24.9375 47.0625 C23.69049657 42.98895546 23.51862613 40.26359712 24 36 C26.70350157 32.7230284 28.37521292 32.09865059 32.5625 31.4375 C36 32 36 32 38.02734375 34.01953125 C40.81499945 38.2313754 42.1784562 42.6860611 43.7109375 47.46875 C44.48723141 49.83266228 44.48723141 49.83266228 46 53 C48.03599261 53.76223416 48.03599261 53.76223416 50 54 C51.31204504 50.30241853 50.81224645 48.05672229 49.5 44.5 C47.37238494 38.56040795 47.37238494 38.56040795 49 35 C51.64293947 32.20603542 53.25149333 31.12220517 57.0625 30.5 C60.79674929 31.1356169 61.63639754 32.06538863 64 35 C65.19817669 38.24273982 66.16296534 41.4451205 67.06640625 44.77539062 C67.69023095 47.00290747 67.69023095 47.00290747 69 50 C71.2348782 51.05297146 72.56572927 51 75 51 C74.7834375 50.12988281 74.7834375 50.12988281 74.5625 49.2421875 C72.41391941 40.2002442 72.41391941 40.2002442 73 36 C74.65222472 33.38397752 75.87108109 32.26834958 78.90625 31.546875 C82.85940568 31.22236222 82.85940568 31.22236222 85 32 C88.40441931 36.47877007 90.38070217 41.04126599 92.27734375 46.30859375 C92.56934662 47.1043129 92.86134949 47.90003204 93.16220093 48.71986389 C94.09854803 51.28850358 95.01970354 53.86217802 95.9375 56.4375 C96.4081337 57.74799316 96.4081337 57.74799316 96.88827515 59.08496094 C113.38758246 105.2179588 113.38758246 105.2179588 108.12890625 118.140625 C102.07099294 128.54831868 92.93808433 132.19694332 82 136 C80.92202148 136.37656738 79.84404297 136.75313477 78.73339844 137.14111328 C75.05909623 138.40975345 71.37564551 139.64722028 67.6875 140.875 C66.49552002 141.28081299 65.30354004 141.68662598 64.07543945 142.10473633 C56.47138732 144.5750856 49.15908096 146.71969365 41.328125 144.109375 C34.91630058 139.91517407 29.18606353 135.06650726 23.4453125 130.01171875 C20.50638197 127.42412917 17.49514604 124.94700827 14.4375 122.5 C10.33371597 119.17731688 6.46631301 115.67876062 2.625 112.0625 C-3.58515537 106.23140726 -10.18274731 101.09536928 -17 96 C-18.75351331 94.65038582 -20.50395524 93.29676269 -22.25 91.9375 C-22.95640625 91.38964844 -23.6628125 90.84179688 -24.390625 90.27734375 C-26 89 -26 89 -27 88 C-27.4534413 81.87854251 -27.4534413 81.87854251 -26 79.0625 C-22.78536754 77.3547265 -19.52136556 77.54064063 -16 78 C-13.15282668 79.04267074 -10.64791663 80.4895498 -8.0625 82.0625 C-7.36664795 82.47008545 -6.6707959 82.8776709 -5.95385742 83.29760742 C0.48647792 87.13898706 6.22394449 91.58603869 11.875 96.5 C12.57625 96.995 13.2775 97.49 14 98 C14.99 97.67 15.98 97.34 17 97 C16.52586708 89.51417056 14.00275347 83.24251875 11.25 76.3125 C10.24783252 73.74241029 9.25542224 71.16862643 8.265625 68.59375 C8.00454956 67.9154866 7.74347412 67.23722321 7.4744873 66.53840637 C4.15166586 57.8555097 1.0755441 49.085333 -2 40.3125 C-2.27871948 39.52090485 -2.55743896 38.72930969 -2.84460449 37.91372681 C-12.43687048 10.65569249 -12.43687048 10.65569249 -11 4 C-7.78310078 0.120798 -4.95398976 -0.8432323 0 0 Z " fill="#FDFDFD" transform="translate(929,627)"/>
<path d="M0 0 C0 19.47 0 38.94 0 59 C-0.33 59 -0.66 59 -1 59 C-1.33 45.47 -1.66 31.94 -2 18 C-15.89223227 24.13977449 -15.89223227 24.13977449 -29.5625 30.75 C-47.42052226 39.8065022 -65.53405901 48.35102404 -83.7734375 56.609375 C-86.90832415 58.03136228 -90.01927498 59.4830302 -93.1015625 61.015625 C-94.22304688 61.56734375 -95.34453125 62.1190625 -96.5 62.6875 C-97.84578125 63.37392578 -97.84578125 63.37392578 -99.21875 64.07421875 C-105.76899468 66.25456705 -111.19303554 65.00847622 -117.24609375 62.109375 C-117.92498154 61.79828796 -118.60386932 61.48720093 -119.30332947 61.16668701 C-121.54521031 60.13044858 -123.77342306 59.0687002 -126 58 C-126.776922 57.62931396 -127.55384399 57.25862793 -128.35430908 56.87670898 C-133.39026919 54.46716847 -138.40626191 52.01830265 -143.4151001 49.552948 C-147.93872498 47.32659452 -152.46785186 45.1114745 -156.99609375 42.89453125 C-157.87652344 42.46310318 -158.75695312 42.03167511 -159.6640625 41.58717346 C-168.85071579 37.08762253 -178.07509971 32.66959962 -187.31396484 28.27832031 C-192.52574835 25.79796234 -197.7310184 23.30396233 -202.9375 20.8125 C-204.88409092 19.88146094 -206.83070314 18.95046641 -208.77734375 18.01953125 C-210.17082031 17.35308594 -211.56429687 16.68664062 -213 16 C-213 11.38 -213 6.76 -213 2 C-205.80968029 4.15939314 -199.25692503 7.14266583 -192.53161621 10.46453857 C-189.31754657 12.0513618 -186.09408348 13.61889419 -182.87109375 15.1875 C-182.2113858 15.50899017 -181.55167786 15.83048035 -180.87197876 16.16171265 C-173.25036568 19.86666507 -165.55081919 23.40074213 -157.84936523 26.93603516 C-151.2487447 29.98147641 -144.70198699 33.11118127 -138.1875 36.3359375 C-137.442724 36.70314911 -136.697948 37.07036072 -135.93060303 37.44869995 C-132.2841155 39.2466972 -128.64369936 41.05521177 -125.01269531 42.88427734 C-123.68060403 43.54318024 -122.34825929 44.20157103 -121.015625 44.859375 C-119.85321289 45.44170898 -118.69080078 46.02404297 -117.49316406 46.62402344 C-112.74906651 48.49274959 -108.24691357 49.57188482 -103.19140625 48.28515625 C-102.32386719 47.88167969 -101.45632813 47.47820312 -100.5625 47.0625 C-99.53769531 46.59585938 -98.51289062 46.12921875 -97.45703125 45.6484375 C-96.31621094 45.10445313 -95.17539062 44.56046875 -94 44 C-92.67126018 43.38653007 -91.34179839 42.7746221 -90.01171875 42.1640625 C-82.59966377 38.73993584 -75.2743838 35.15809274 -67.98291016 31.48413086 C-50.55393062 22.73247909 -32.95499715 14.30270056 -15.25 6.125 C-14.15574707 5.61936523 -13.06149414 5.11373047 -11.93408203 4.59277344 C-1.93172115 0 -1.93172115 0 0 0 Z " fill="#333D47" transform="translate(875,400)"/>
<path d="M0 0 C0.33 0 0.66 0 1 0 C1 178.2 1 356.4 1 540 C47.73109375 539.95359375 94.4621875 539.9071875 142.609375 539.859375 C170.36126279 539.84016835 198.11314541 539.82123186 225.86503553 539.80734015 C242.1357016 539.799175 258.40636755 539.79082314 274.67703322 539.78189602 C276.64518826 539.78081667 278.61334331 539.77974318 280.58149835 539.77867565 C311.97872257 539.76159688 343.37591805 539.73157327 374.77312488 539.69481112 C407.03185904 539.65710867 439.29057728 539.63246472 471.54933309 539.62434004 C476.10173897 539.62318736 480.65414479 539.62188481 485.2065506 539.62049103 C486.10256242 539.62022134 486.99857424 539.61995164 487.92173793 539.61967378 C502.36685851 539.61494001 516.81193003 539.59636924 531.25703058 539.57267186 C545.76603693 539.54916321 560.27499446 539.54011794 574.7840192 539.54599449 C583.41266101 539.54904547 592.04112465 539.54084902 600.66973441 539.51680983 C606.42643986 539.5018621 612.18302801 539.50130855 617.93974141 539.51267275 C621.22455129 539.5187388 624.50895269 539.51616052 627.79374072 539.50046727 C631.32538059 539.48456674 634.8561283 539.49297292 638.38775253 539.50780869 C639.93141422 539.4920466 639.93141422 539.4920466 641.50626099 539.4759661 C648.39939852 539.5420364 648.39939852 539.5420364 651.66326547 542.03076196 C652.10438786 542.68061051 652.54551026 543.33045907 653 544 C652.01 543.67 651.02 543.34 650 543 C648.48657996 542.90766683 646.96940612 542.8714286 645.45317346 542.86938947 C644.51327698 542.86570876 643.5733805 542.86202805 642.60500231 542.85823581 C641.56845447 542.85925847 640.53190663 542.86028114 639.46394825 542.8613348 C637.81005905 542.85707147 637.81005905 542.85707147 636.12275794 542.85272202 C632.39008422 542.84433206 628.65744136 542.84310345 624.92475891 542.84178162 C622.23692294 542.83721919 619.54909036 542.83226178 616.8612563 542.82681805 C610.99783562 542.81574357 605.13441927 542.80838247 599.27099037 542.80341911 C590.55222339 542.79602208 581.83347149 542.78294103 573.11471337 542.76867336 C558.44990111 542.74483744 543.78508618 542.72564395 529.12026405 542.70907402 C514.59513291 542.69264684 500.07000677 542.67416992 485.54488182 542.65294075 C484.64257629 542.65162314 483.74027075 542.65030554 482.81062262 542.648948 C478.22848022 542.64224614 473.64633787 542.63550752 469.06419554 542.62875474 C436.58829341 542.58096065 404.11238662 542.53778456 371.63647461 542.49731445 C340.08178366 542.45798179 308.52709657 542.41656345 276.97241211 542.37231445 C275.51405838 542.37027066 275.51405838 542.37027066 274.02624296 542.36818558 C264.26286841 542.35450049 254.49949393 542.34077292 244.73611948 542.32701423 C224.84606791 542.29898585 204.95601595 542.27124103 185.06596375 542.2436676 C184.15140233 542.2423994 183.23684091 542.2411312 182.29456551 542.23982458 C121.19638329 542.1551338 60.09819227 542.07705359 -1 542 C-1.01711063 490.54629592 -1.03303225 439.09259163 -1.04234314 387.6388855 C-1.0424812 386.87790334 -1.04261925 386.11692118 -1.04276149 385.33287896 C-1.04575409 368.79648757 -1.04852431 352.26009616 -1.05106533 335.7237047 C-1.05231272 327.61479401 -1.05360926 319.50588333 -1.05493164 311.39697266 C-1.0550624 310.59001912 -1.05519316 309.78306558 -1.05532788 308.95165891 C-1.05959267 282.77466022 -1.06710654 256.59766369 -1.07629722 230.4206663 C-1.08572117 203.53055627 -1.09188343 176.64044743 -1.09391499 149.75033577 C-1.09420316 145.95623657 -1.0945288 142.16213737 -1.09487724 138.36803818 C-1.09494467 137.62127176 -1.09501209 136.87450535 -1.09508156 136.10510965 C-1.09626535 124.0623042 -1.10090901 112.01950242 -1.10683203 99.97669847 C-1.11270683 87.88290339 -1.11497111 75.78911196 -1.11350138 63.6953155 C-1.11280562 57.13725133 -1.11387674 50.57919589 -1.11920547 44.02113342 C-1.1240408 38.02688642 -1.12433776 32.03265762 -1.12089889 26.03840981 C-1.12047333 23.86073012 -1.12176795 21.68304933 -1.12488318 19.50537182 C-1.12884976 16.56338367 -1.12676171 13.62146272 -1.12304783 10.67947578 C-1.12698835 9.38783702 -1.12698835 9.38783702 -1.13100848 8.07010454 C-1.1141458 2.2282916 -1.1141458 2.2282916 0 0 Z " fill="#31404F" transform="translate(306,227)"/>
<path d="M0 0 C58.08 0 116.16 0 176 0 C176 6 176 6 173.6875 8.75 C169.34887546 12.38233682 167.25711289 13.25168862 161.65008545 13.27415466 C160.67972174 13.28200968 160.67972174 13.28200968 159.68975472 13.29002339 C157.51804249 13.3050472 155.34656537 13.30572905 153.17480469 13.30639648 C151.61923321 13.31401653 150.0636655 13.32244376 148.50810242 13.33161926 C144.27859887 13.35358989 140.04916763 13.36236689 135.81961346 13.36744571 C133.17673317 13.37108706 130.53387189 13.37732604 127.89099884 13.3844471 C118.66934882 13.40895305 109.44775513 13.42199541 100.22607422 13.42553711 C91.63329608 13.42917058 83.04087554 13.45904932 74.44820666 13.50094169 C67.06974144 13.53565181 59.69139464 13.55108569 52.31284833 13.55178314 C47.90660489 13.55257589 43.50072537 13.56131263 39.09456635 13.58978081 C34.94773854 13.61597314 30.80157597 13.61816053 26.65470314 13.60212517 C25.13537202 13.60031142 23.61600256 13.60699485 22.09675407 13.62294388 C9.20107212 13.7500327 9.20107212 13.7500327 4.66607666 10.65003967 C2 8 2 8 0 5 C0 3.35 0 1.7 0 0 Z " fill="#B1BAC1" transform="translate(679,770)"/>
<path d="M0 0 C0.91523437 -0.03996094 1.83046875 -0.07992187 2.7734375 -0.12109375 C6.67053886 0.64231104 9.10220594 2.47485545 11.625 5.4375 C12.90104376 8.02645101 13.86645305 10.29336882 14.75 13 C14.99443848 13.70020264 15.23887695 14.40040527 15.49072266 15.12182617 C16.21913336 17.22168645 16.92215755 19.32897264 17.625 21.4375 C18.04265625 22.62859375 18.4603125 23.8196875 18.890625 25.046875 C21.625 32.94190141 21.625 32.94190141 21.625 36.4375 C22.718125 35.7775 23.81125 35.1175 24.9375 34.4375 C30.08370752 31.87810727 34.97656537 31.54337945 40.625 32.4375 C43.07363281 33.52787008 44.57417836 34.66381642 46.625 36.4375 C47.09808594 36.0765625 47.57117188 35.715625 48.05859375 35.34375 C52.61400721 32.14696863 55.98177384 30.74258659 61.58203125 31.0703125 C64.42404032 31.58111337 66.34580815 32.69458859 68.625 34.4375 C70.11 35.4275 70.11 35.4275 71.625 36.4375 C72.429375 35.798125 73.23375 35.15875 74.0625 34.5 C78.01538958 31.88343006 81.92450857 31.23460109 86.625 31.4375 C91.68301587 33.09108211 94.68392529 36.10949054 97.625 40.4375 C99.05787266 43.37118325 100.14442979 46.39210155 101.21875 49.47265625 C101.53275757 50.34659531 101.84676514 51.22053436 102.17028809 52.12095642 C102.8317808 53.97207739 103.4869764 55.8254593 104.13623047 57.6809082 C105.1059041 60.44555546 106.09997367 63.20043442 107.09765625 65.95507812 C110.37096485 75.11326644 113.28323195 84.29545359 115.59375 93.74609375 C115.80342407 94.5873732 116.01309814 95.42865265 116.22912598 96.29542542 C117.79483239 103.04937111 119.33326834 110.19946178 115.625 116.4375 C114.965 117.0975 114.305 117.7575 113.625 118.4375 C112.97732207 121.00811311 112.97732207 121.00811311 112.625 123.4375 C112.295 123.4375 111.965 123.4375 111.625 123.4375 C111.52795776 122.59493652 111.52795776 122.59493652 111.42895508 121.73535156 C108.4851345 96.82026921 101.49342452 74.74836014 92.70703125 51.33984375 C92.28691269 50.21146339 92.28691269 50.21146339 91.85830688 49.06028748 C90.66805408 45.92079093 89.49594663 43.24391994 87.625 40.4375 C82.50562831 39.80666032 82.50562831 39.80666032 77.8515625 41.48046875 C75.92006498 44.562253 76.5715049 47.65614374 76.9375 51.125 C77.0293457 52.1778418 77.0293457 52.1778418 77.12304688 53.25195312 C77.27602624 54.9817967 77.44862602 56.70988497 77.625 58.4375 C75.975 58.7675 74.325 59.0975 72.625 59.4375 C69.67040777 54.88809947 68.23254109 50.3426998 66.6875 45.1796875 C65.64244853 42.4825326 64.92108127 41.15090738 62.625 39.4375 C58.86915679 38.86595864 57.05387522 39.20937489 53.6875 41 C51.25174191 43.33490131 51.25174191 43.33490131 51.6875 46.8125 C52.55222478 50.38626745 52.55222478 50.38626745 53.75 53.5625 C54.70048873 56.6855344 54.53429325 58.34590295 53.625 61.4375 C52.305 61.7675 50.985 62.0975 49.625 62.4375 C46.44350109 58.80964154 45.12869477 54.79077558 43.5625 50.3125 C41.85108965 44.94316258 41.85108965 44.94316258 38.625 40.4375 C35.09513492 40.11066064 32.48724134 40.08375996 29.1875 41.4375 C27.18994613 43.99436895 27.13863687 46.06173822 27.28515625 49.25 C27.74929026 52.23752929 28.79609846 54.83158348 29.94921875 57.61328125 C30.83276509 59.99834566 30.99437524 61.92574837 30.625 64.4375 C29.965 65.0975 29.305 65.7575 28.625 66.4375 C26.62669373 66.33790588 26.62669373 66.33790588 24.625 65.4375 C23.48475647 63.52134705 23.48475647 63.52134705 22.59790039 61.03100586 C22.2673465 60.12293182 21.9367926 59.21485779 21.59622192 58.27926636 C21.27571869 57.34148346 20.95521545 56.40370056 20.625 55.4375 C20.32681366 54.58697052 20.02862732 53.73644104 19.72140503 52.86013794 C18.81270356 50.22720137 17.9329885 47.58592188 17.05859375 44.94140625 C16.40204844 42.98230263 15.74513697 41.02332168 15.08789062 39.06445312 C14.06807162 36.01536463 13.05105194 32.9654316 12.0402832 29.91333008 C11.05433999 26.9407955 10.05735753 23.97215349 9.05859375 21.00390625 C8.60848183 19.63051842 8.60848183 19.63051842 8.14927673 18.22938538 C7.86210281 17.3809758 7.57492889 16.53256622 7.27905273 15.65844727 C7.031306 14.91361588 6.78355927 14.16878448 6.52830505 13.40138245 C5.51395055 11.19606654 4.52009832 9.94812911 2.625 8.4375 C-0.6033768 8.02536679 -2.72219037 8.17981199 -5.75 9.375 C-8.79424484 13.23884922 -7.60641291 18.13854549 -7.13671875 22.8046875 C-6.91242712 24.68605909 -6.64772198 26.5625364 -6.375 28.4375 C-9.13723278 25.67526722 -8.95356291 23.23043383 -9.375 19.4375 C-10.035 19.4375 -10.695 19.4375 -11.375 19.4375 C-11.375 20.0975 -11.375 20.7575 -11.375 21.4375 C-12.035 21.4375 -12.695 21.4375 -13.375 21.4375 C-13.705 22.4275 -14.035 23.4175 -14.375 24.4375 C-15.94073943 19.64242299 -17.17647014 15.51347754 -16.375 10.4375 C-12.11521806 4.0186505 -7.86960194 0.18737147 0 0 Z " fill="#364554" transform="translate(926.375,619.5625)"/>
<path d="M0 0 C24.4375 0 24.4375 0 30.375 5 C33.31795749 8.62210153 33.3360935 12.23964293 33.28515625 16.71484375 C32.8431341 20.25707607 31.28784141 22.33085169 29 25 C27.68415442 26.02290185 26.35352738 27.02750764 25 28 C25.30292969 28.47945068 25.60585938 28.95890137 25.91796875 29.45288086 C27.28096482 31.61296752 28.64052314 33.77519693 30 35.9375 C30.47695313 36.69224609 30.95390625 37.44699219 31.4453125 38.22460938 C32.12207031 39.30258789 32.12207031 39.30258789 32.8125 40.40234375 C33.23144531 41.06741943 33.65039062 41.73249512 34.08203125 42.41772461 C35 44 35 44 35 45 C31.31078477 46.13031275 28.65040705 46.34960479 25 45 C22.35171365 41.93361387 20.47773074 38.38560461 18.66455078 34.77929688 C18.09776611 33.69938477 18.09776611 33.69938477 17.51953125 32.59765625 C17.20089111 31.93258057 16.88225098 31.26750488 16.55395508 30.58227539 C14.54013385 28.21144855 14.54013385 28.21144855 8 28 C8 33.61 8 39.22 8 45 C5.36 45 2.72 45 0 45 C0 30.15 0 15.3 0 0 Z " fill="#FEFBFA" transform="translate(880,569)"/>
<path d="M0 0 C24.4375 0 24.4375 0 30.375 5 C33.13861758 8.40137548 33.27796695 11.64306377 33.22265625 15.93359375 C32.88205963 19.0945694 31.70277003 21.35124663 30 24 C27 26 27 26 24 26 C24.33322266 26.54003662 24.66644531 27.08007324 25.00976562 27.63647461 C26.50880487 30.0687444 28.00444375 32.50308718 29.5 34.9375 C30.02464844 35.78763672 30.54929687 36.63777344 31.08984375 37.51367188 C31.58613281 38.32255859 32.08242188 39.13144531 32.59375 39.96484375 C33.05458984 40.7137085 33.51542969 41.46257324 33.99023438 42.23413086 C35 44 35 44 35 45 C31.33579802 46.03270828 28.62404913 46.26816657 25 45 C21.28516001 41.0579118 16 33.45762997 16 28 C13.36 28 10.72 28 8 28 C8 33.61 8 39.22 8 45 C5.36 45 2.72 45 0 45 C0 30.15 0 15.3 0 0 Z " fill="#FDFAF8" transform="translate(623,569)"/>
<path d="M0 0 C3.2148016 1.89625718 5.35668735 4.19128102 7.4375 7.3125 C5.07457344 9.83838702 3.77287489 11.20070837 0.4375 12.3125 C-2.125 10.4375 -2.125 10.4375 -4.5625 8.3125 C-8.28962158 6.44893921 -12.5045732 6.74700025 -16.5625 7.3125 C-20.18781608 9.1866654 -22.25371639 11.38614917 -23.5625 15.3125 C-24.38423178 23.43704965 -24.38423178 23.43704965 -21.8125 30.9375 C-19.19555812 33.69982754 -17.19154825 35.05777609 -13.4140625 35.6484375 C-8.01143006 35.74322053 -4.70261106 35.14210273 -0.5625 31.3125 C-0.2325 29.6625 0.0975 28.0125 0.4375 26.3125 C-3.8525 26.3125 -8.1425 26.3125 -12.5625 26.3125 C-12.5625 24.0025 -12.5625 21.6925 -12.5625 19.3125 C-5.6325 19.3125 1.2975 19.3125 8.4375 19.3125 C8.92601775 31.28118476 8.92601775 31.28118476 6.75 35.875 C1.50856695 41.39975376 -3.10378245 44.28034943 -10.8125 44.6875 C-16.75953412 44.52676935 -22.52646344 42.7616178 -27.19921875 38.9921875 C-32.9156389 32.70927527 -34.15510827 25.44399858 -33.90625 17.2109375 C-33.07598325 10.21027924 -29.7545492 5.95229956 -24.44140625 1.5390625 C-17.42655442 -3.04027945 -7.60419192 -3.53051768 0 0 Z " fill="#FDFAF8" transform="translate(733.5625,570.6875)"/>
<path d="M0 0 C3.29151099 1.75686135 5.44903853 3.65265112 6.6015625 7.23828125 C5.2815625 8.55828125 3.9615625 9.87828125 2.6015625 11.23828125 C2.0446875 10.94953125 1.4878125 10.66078125 0.9140625 10.36328125 C0.1509375 9.99203125 -0.6121875 9.62078125 -1.3984375 9.23828125 C-2.1615625 8.86703125 -2.9246875 8.49578125 -3.7109375 8.11328125 C-7.08207196 7.01570259 -9.87501579 6.97236263 -13.3984375 7.23828125 C-14.0584375 7.89828125 -14.7184375 8.55828125 -15.3984375 9.23828125 C-15.3984375 10.55828125 -15.3984375 11.87828125 -15.3984375 13.23828125 C-14.84381836 13.45444092 -14.28919922 13.67060059 -13.71777344 13.89331055 C-11.18841172 14.88902854 -8.66863203 15.90709594 -6.1484375 16.92578125 C-4.83939453 17.4352832 -4.83939453 17.4352832 -3.50390625 17.95507812 C1.34719854 19.93625451 4.95321552 21.46400093 7.6015625 26.23828125 C8.51680896 30.57465587 8.57652745 35.13899501 6.68359375 39.21484375 C3.88939332 42.88618801 1.04740643 44.42994599 -3.3984375 45.23828125 C-10.8965534 45.91512105 -17.13964663 45.74762696 -23.3984375 41.23828125 C-24.42146963 40.26185651 -25.428358 39.26733215 -26.3984375 38.23828125 C-25.34968752 35.61640631 -24.74912437 34.44456764 -22.2734375 32.98828125 C-21.6546875 32.74078125 -21.0359375 32.49328125 -20.3984375 32.23828125 C-19.6353125 32.89828125 -18.8721875 33.55828125 -18.0859375 34.23828125 C-13.68522714 37.21430121 -8.5110837 36.956725 -3.3984375 36.23828125 C-2.7384375 35.57828125 -2.0784375 34.91828125 -1.3984375 34.23828125 C-1.72042716 31.13901306 -1.72042716 31.13901306 -2.3984375 28.23828125 C-3.0996875 27.9959375 -3.8009375 27.75359375 -4.5234375 27.50390625 C-21.9932019 21.33252209 -21.9932019 21.33252209 -25.3984375 14.23828125 C-26.05911536 10.27421407 -25.59987826 8.61878047 -23.7109375 5.05078125 C-17.79883895 -2.13960888 -8.64088341 -2.7442545 0 0 Z " fill="#FDF9F7" transform="translate(791.3984375,569.76171875)"/>
<path d="M0 0 C9.57 0 19.14 0 29 0 C29 2.31 29 4.62 29 7 C22.4 7 15.8 7 9 7 C9 10.96 9 14.92 9 19 C15.27 19 21.54 19 28 19 C28 20.98 28 22.96 28 25 C27 26 27 26 25.23413086 26.11352539 C24.48526611 26.10828857 23.73640137 26.10305176 22.96484375 26.09765625 C22.15595703 26.09443359 21.34707031 26.09121094 20.51367188 26.08789062 C19.66353516 26.07951172 18.81339844 26.07113281 17.9375 26.0625 C17.08349609 26.05798828 16.22949219 26.05347656 15.34960938 26.04882812 C13.23304337 26.03700373 11.11651315 26.01906769 9 26 C9 29.96 9 33.92 9 38 C15.6 38 22.2 38 29 38 C29 40.31 29 42.62 29 45 C19.43 45 9.86 45 0 45 C0 30.15 0 15.3 0 0 Z " fill="#FDF9F7" transform="translate(843,569)"/>
<path d="M0 0 C9.57 0 19.14 0 29 0 C29 2.31 29 4.62 29 7 C22.4 7 15.8 7 9 7 C9 10.96 9 14.92 9 19 C14.94 19 20.88 19 27 19 C27 20.98 27 22.96 27 25 C26 26 26 26 22.18359375 26.09765625 C20.60153318 26.09098089 19.01948841 26.07901875 17.4375 26.0625 C16.63119141 26.05798828 15.82488281 26.05347656 14.99414062 26.04882812 C12.99606244 26.03700518 10.99802217 26.01906914 9 26 C9 29.96 9 33.92 9 38 C15.6 38 22.2 38 29 38 C29 40.31 29 42.62 29 45 C19.43 45 9.86 45 0 45 C0 30.15 0 15.3 0 0 Z " fill="#FDFAF8" transform="translate(665,569)"/>
<path d="M0 0 C11.55 0 23.1 0 35 0 C35 2.31 35 4.62 35 7 C30.71 7 26.42 7 22 7 C22 19.54 22 32.08 22 45 C19.36 45 16.72 45 14 45 C14 32.46 14 19.92 14 7 C9.38 7 4.76 7 0 7 C0 4.69 0 2.38 0 0 Z " fill="#FDFCFB" transform="translate(802,569)"/>
<path d="M0 0 C2.64 0 5.28 0 8 0 C8 14.85 8 29.7 8 45 C5.36 45 2.72 45 0 45 C0 30.15 0 15.3 0 0 Z " fill="#FEFDFC" transform="translate(750,569)"/>
<path d="M0 0 C10.74695122 -0.42987805 10.74695122 -0.42987805 15 3 C16 4 16 4 16.3125 7.375 C16 11 16 11 14.37109375 12.71484375 C11.32384213 14.36648425 9.19526081 14.29984546 5.75 14.1875 C2.90375 14.0946875 2.90375 14.0946875 0 14 C0 9.38 0 4.76 0 0 Z " fill="#E97C4D" transform="translate(888,576)"/>
<path d="M0 0 C11.46800782 -0.36993574 11.46800782 -0.36993574 13.859375 1.29296875 C15.79602367 4.1913094 15.41980773 6.64153818 15 10 C12.74494167 12.30787 11.43027538 12.95492925 8.203125 13.29296875 C5.46875 13.1953125 2.734375 13.09765625 0 13 C0 8.71 0 4.42 0 0 Z " fill="#E87341" transform="translate(632,577)"/>
<path d="M0 0 C4.29 0 8.58 0 13 0 C13 0.33 13 0.66 13 1 C9.37 1 5.74 1 2 1 C2.00523682 2.11560303 2.01047363 3.23120605 2.01586914 4.38061523 C2.03391775 8.50479333 2.04543149 12.62896791 2.05493164 16.75317383 C2.05997218 18.54094021 2.06680454 20.32870245 2.07543945 22.11645508 C2.0875173 24.68051168 2.09323094 27.24451397 2.09765625 29.80859375 C2.10281754 30.6127623 2.10797882 31.41693085 2.11329651 32.24546814 C2.11349215 34.16401715 2.06201983 36.08245368 2 38 C1 39 1 39 -1.06640625 39.09765625 C-1.89011719 39.08605469 -2.71382812 39.07445312 -3.5625 39.0625 C-4.38878906 39.05347656 -5.21507812 39.04445313 -6.06640625 39.03515625 C-6.70449219 39.02355469 -7.34257813 39.01195312 -8 39 C-8.33 38.34 -8.66 37.68 -9 37 C-6.03 37 -3.06 37 0 37 C0 24.79 0 12.58 0 0 Z " fill="#E7703B" transform="translate(824,577)"/>
<path d="M0 0 C0.66 0.33 1.32 0.66 2 1 C1.505 1.33 1.01 1.66 0.5 2 C-1.83470518 5.11294024 -1.51453145 8.30592805 -1 12 C-0.32456266 14.11171215 0.47550249 16.12840412 1.32421875 18.17578125 C2.20776509 20.56084566 2.36937524 22.48824837 2 25 C1.34 25.66 0.68 26.32 0 27 C-2.015625 26.87890625 -2.015625 26.87890625 -4 26 C-5.046875 24.15234375 -5.046875 24.15234375 -5.75 21.9375 C-5.99234375 21.20402344 -6.2346875 20.47054687 -6.484375 19.71484375 C-6.65453125 19.14894531 -6.8246875 18.58304688 -7 18 C-5.35 17.34 -3.7 16.68 -2 16 C-2.350625 15.154375 -2.70125 14.30875 -3.0625 13.4375 C-4.14394372 9.47220634 -3.9748045 6.97420298 -3 3 C-1.4375 1.0625 -1.4375 1.0625 0 0 Z " fill="#303E4D" transform="translate(955,659)"/>
<path d="M0 0 C0.66 1.32 1.32 2.64 2 4 C1.67 4.33 1.34 4.66 1 5 C1.99 5.33 2.98 5.66 4 6 C4.94921875 8.328125 4.94921875 8.328125 5.6875 11.25 C5.93886719 12.20390625 6.19023438 13.1578125 6.44921875 14.140625 C6.9703456 16.84604951 7.10521678 19.25434317 7 22 C4.23776722 19.23776722 4.42143709 16.79293383 4 13 C3.34 13 2.68 13 2 13 C2 13.66 2 14.32 2 15 C1.34 15 0.68 15 0 15 C-0.33 15.99 -0.66 16.98 -1 18 C-2.57531709 13.1755914 -3.48503732 9.14139563 -3 4 C-1.5 1.5625 -1.5 1.5625 0 0 Z " fill="#344A5B" transform="translate(913,626)"/>
<path d="M0 0 C10.74695122 -0.42987805 10.74695122 -0.42987805 15 3 C16 4 16 4 16.3125 7.375 C16 11 16 11 14.37109375 12.71484375 C11.32384213 14.36648425 9.19526081 14.29984546 5.75 14.1875 C2.90375 14.0946875 2.90375 14.0946875 0 14 C0 9.38 0 4.76 0 0 Z M2 2 C2 5.63 2 9.26 2 13 C8.06755731 13.48145231 8.06755731 13.48145231 13.5625 11.5 C14.036875 11.005 14.51125 10.51 15 10 C14.74438677 7.6568787 14.40729228 5.32156597 14 3 C11.47524538 1.73762269 9.68799534 1.90143596 6.875 1.9375 C5.26625 1.958125 3.6575 1.97875 2 2 Z " fill="#E8723F" transform="translate(888,576)"/>
<path d="M0 0 C0.33 0 0.66 0 1 0 C1.50806447 1.72681437 2.00610467 3.45657979 2.5 5.1875 C2.7784375 6.15042969 3.056875 7.11335937 3.34375 8.10546875 C3.96677608 10.85345876 4.12302812 13.19598416 4 16 C1.23776722 13.23776722 1.42143709 10.79293383 1 7 C0.34 7 -0.32 7 -1 7 C-1 7.66 -1 8.32 -1 9 C-1.66 9 -2.32 9 -3 9 C-3.33 9.99 -3.66 10.98 -4 12 C-4.75 10.25 -4.75 10.25 -5 8 C-3.71034824 6.62437146 -2.37310707 5.29233607 -1 4 C-0.2127322 1.8618034 -0.2127322 1.8618034 0 0 Z " fill="#2F3D4C" transform="translate(916,632)"/>
<path d="M0 0 C0.66 0.33 1.32 0.66 2 1 C0.68 2.32 -0.64 3.64 -2 5 C-1.690625 5.7425 -1.38125 6.485 -1.0625 7.25 C-0.1905075 9.50692176 0.47667007 11.6450153 1 14 C-1.9555377 11.24829249 -4.11563315 8.58029701 -6 5 C-6 4.34 -6 3.68 -6 3 C-4.03533587 1.93224776 -2.03144641 0.93446535 0 0 Z " fill="#E76F3B" transform="translate(653,592)"/>
<path d="M0 0 C0.99 0 1.98 0 3 0 C2.67 2.31 2.34 4.62 2 7 C1.01 7 0.02 7 -1 7 C-1.04254356 5.00045254 -1.04080783 2.99958364 -1 1 C-0.67 0.67 -0.34 0.34 0 0 Z " fill="#3F4E5B" transform="translate(977,673)"/>
<path d="M0 0 C6.0546875 -0.1953125 6.0546875 -0.1953125 8 0 C8.66 0.66 9.32 1.32 10 2 C7.04335481 3.4783226 4.25770263 3.06032783 1 3 C0.67 2.01 0.34 1.02 0 0 Z " fill="#455663" transform="translate(745,494)"/>
</svg>
