<svg width="123" height="116" viewBox="0 0 123 116" fill="none" xmlns="http://www.w3.org/2000/svg">
<path d="M94.7947 88.9013L55.0031 105.792C54.1542 106.154 53.2344 106.319 52.3126 106.275C51.3909 106.231 50.491 105.978 49.6805 105.537C48.8824 105.111 48.1914 104.509 47.6592 103.777C47.1271 103.045 46.7676 102.202 46.6079 101.311C43.3175 83.0864 35.7693 65.8966 24.5778 51.1415C23.7855 50.0971 23.3529 48.8241 23.3448 47.5132C23.3368 46.2023 23.7537 44.9241 24.5331 43.87C35.3857 29.3611 50.887 23.0832 70.6061 25.2137C71.5361 25.305 72.433 25.6077 73.2283 26.0986C74.0235 26.5894 74.696 27.2556 75.1945 28.046C85.5897 44.6463 93.3894 62.7365 98.324 81.6911C98.7087 83.1164 98.5634 84.6328 97.9152 85.9591C97.267 87.2854 96.1598 88.3317 94.799 88.9038L94.7947 88.9013Z" fill="#E6E6E6"/>
<path d="M59.8182 58.196L46.1294 64.0066C45.3725 64.3279 44.5191 64.3353 43.7568 64.0273C42.9945 63.7193 42.3858 63.1211 42.0645 62.3643C41.7433 61.6075 41.7358 60.7541 42.0438 59.9918C42.3518 59.2295 42.95 58.6207 43.7068 58.2995L57.3957 52.4889C58.1525 52.1677 59.0059 52.1602 59.7682 52.4682C60.5305 52.7762 61.1392 53.3744 61.4605 54.1312C61.7817 54.888 61.7892 55.7415 61.4812 56.5038C61.1732 57.2661 60.575 57.8748 59.8182 58.196Z" fill="#4FA0BF"/>
<path d="M81.3414 62.3686L50.916 75.2835C50.1592 75.6047 49.3057 75.6122 48.5434 75.3042C47.7811 74.9962 47.1724 74.398 46.8512 73.6412C46.5299 72.8843 46.5225 72.0309 46.8304 71.2686C47.1384 70.5063 47.7366 69.8976 48.4934 69.5763L78.9189 56.6615C79.6757 56.3402 80.5291 56.3328 81.2914 56.6408C82.0537 56.9488 82.6625 57.547 82.9837 58.3038C83.305 59.0606 83.3124 59.914 83.0044 60.6763C82.6964 61.4386 82.0982 62.0474 81.3414 62.3686Z" fill="#4FA0BF"/>
<path d="M55.5604 105.538C54.6187 105.941 53.5977 106.124 52.5747 106.075C51.5517 106.025 50.5534 105.744 49.655 105.252C48.7666 104.778 47.9978 104.108 47.4069 103.292C46.816 102.477 46.4187 101.537 46.2449 100.545C44.613 91.5174 41.9254 82.7128 38.2374 74.3126C34.5475 65.912 29.8827 57.9743 24.339 50.6631C23.4576 49.5022 22.9761 48.0871 22.9665 46.6295C22.9569 45.172 23.4198 43.7506 24.2857 42.5782C29.2225 35.7759 35.8928 30.4217 43.602 27.0732C51.5487 23.7 60.7604 22.5493 70.9841 23.6522C72.0162 23.751 73.0118 24.0857 73.894 24.6305C74.7762 25.1752 75.5214 25.9154 76.0721 26.7939C86.5076 43.452 94.3353 61.6074 99.2842 80.631C99.7085 82.2117 99.5471 83.8925 98.8297 85.3636C98.1123 86.8346 96.8873 87.9967 95.3805 88.6356L55.5604 105.538ZM44.133 28.3242C36.6466 31.5796 30.1698 36.7826 25.3772 43.3914C24.6868 44.3275 24.3181 45.4619 24.3262 46.6251C24.3342 47.7882 24.7187 48.9174 25.422 49.8438C31.0301 57.2396 35.7492 65.269 39.4822 73.7669C43.2122 82.2651 45.9302 91.1724 47.5803 100.305C47.7191 101.096 48.0362 101.845 48.5076 102.495C48.979 103.144 49.5923 103.678 50.3009 104.055C51.02 104.45 51.8192 104.675 52.6383 104.715C53.4574 104.755 54.2749 104.609 55.029 104.286L94.8463 87.3849C96.0521 86.8739 97.0323 85.944 97.606 84.7668C98.1797 83.5896 98.3083 82.2446 97.9679 80.9801C93.054 62.0894 85.2811 44.0609 74.9188 27.5192C74.4772 26.8156 73.8798 26.223 73.1726 25.7872C72.4654 25.3514 71.6675 25.0841 70.8406 25.0059C60.8471 23.9258 51.8643 25.0424 44.133 28.3242Z" fill="#4FA0BF"/>
</svg>
